<svg width="200" height="697" viewBox="0 0 200 697" fill="none" xmlns="http://www.w3.org/2000/svg">
<path d="M199.785 132.409C199.645 128.943 199.435 123.166 199.365 119.499C199.015 106.54 198.735 98.5029 198.595 97.3978C198.525 96.795 198.315 94.384 198.245 92.0733C198.175 89.7627 197.964 87.2512 197.824 86.5479C197.684 85.8447 197.474 84.1871 197.474 82.8811C197.264 78.5612 196.704 74.5427 195.864 71.4284C195.513 70.2229 195.373 69.0676 195.513 68.8666C195.654 68.6657 195.513 68.6155 195.303 68.7662C195.023 68.9671 194.813 67.7113 194.813 64.9988C194.813 62.7887 194.673 60.7292 194.533 60.4278C194.393 60.1264 193.623 59.8251 192.782 59.7246C191.102 59.5237 190.822 59.1721 190.121 55.6559C189.841 54.3499 189.281 52.2904 188.861 51.0849C188.441 49.8793 187.95 48.4729 187.81 47.9706C187.46 46.4636 186.55 46.5139 184.729 48.1212C182.768 49.8291 181.928 51.1853 181.158 53.8476C180.668 55.6057 178.637 58.0167 177.726 58.067C177.376 58.067 176.816 56.5098 176.396 54.2494C176.256 53.6467 176.046 51.6876 175.976 49.8291C175.836 48.0208 175.485 45.6097 175.135 44.4544C174.785 43.1986 174.505 40.6368 174.575 37.9244C174.575 33.052 174.015 30.9925 172.544 30.7413C172.054 30.6409 171.284 29.787 170.583 28.4809C169.953 27.3256 169.253 26.4717 169.113 26.5722C168.903 26.6726 168.833 26.5722 168.973 26.2708C169.463 25.0652 168.553 23.3072 167.152 22.7044C165.611 22.0514 164.141 22.403 164.141 23.4579C164.141 23.7592 164.001 24.0104 163.791 24.0104C163.581 24.0104 163.441 25.1657 163.301 26.5219C163.231 27.8782 162.95 29.0837 162.74 29.134C162.53 29.2344 162.32 29.586 162.32 29.9376C162.32 30.3395 162.11 30.7413 161.9 30.892C161.69 31.0427 161.48 31.2939 161.48 31.4948C161.48 31.6957 161.62 31.7962 161.83 31.6455C162.04 31.545 162.18 31.9469 162.11 32.5497C162.11 33.2027 161.83 33.6547 161.55 33.6547C161.27 33.6547 161.13 33.8557 161.27 34.0566C161.41 34.2575 161.34 34.4082 161.13 34.4082C160.499 34.4082 160.219 33.504 160.499 31.7962C160.64 30.9423 160.499 29.4856 160.289 28.5814C160.009 27.6773 159.729 26.7229 159.729 26.4215C159.729 26.1201 159.449 25.5676 159.309 25.2159C159.169 24.8643 159.099 24.2615 159.239 23.8597C159.519 22.9053 158.959 22.6039 158.259 23.3574C157.978 23.6588 157.908 23.9099 158.118 23.9099C158.329 23.9099 158.329 24.0104 158.118 24.2113C157.418 24.7136 156.578 26.2206 157.068 26.1703C157.278 26.1703 157.488 26.321 157.488 26.5219C157.488 26.7229 157.348 26.8233 157.138 26.7731C156.648 26.5219 156.578 29.4856 156.998 30.239C157.278 30.6409 157.208 30.9925 156.928 31.2939C156.368 31.7962 156.158 33.3031 156.648 33.0017C157.278 32.6501 156.998 33.8557 156.368 34.3077C155.878 34.6594 155.878 35.011 156.158 35.664C156.648 36.8193 156.648 37.2211 156.158 36.5179C155.878 36.1161 155.738 36.317 155.738 37.2714C155.738 37.9746 155.527 39.8331 155.247 41.3401C154.967 42.8972 154.687 44.5548 154.687 45.1074C154.617 46.7148 153.147 46.3129 151.536 44.2032C150.555 42.9977 149.855 42.4452 149.435 42.5958C149.015 42.7465 148.945 42.9977 149.225 43.2488C149.435 43.4498 149.435 44.0023 149.225 44.4042C149.015 44.806 148.875 45.7604 148.805 46.5139C148.805 47.5687 148.525 48.071 147.614 48.5733C146.214 49.4273 145.373 49.5779 144.323 49.1761C143.903 48.9752 143.623 48.9752 143.763 49.1761C143.903 49.377 143.273 49.7789 142.432 50.0803C141.592 50.3816 140.682 50.8337 140.541 51.0849C140.401 51.336 140.191 50.8337 140.191 50.03C140.191 48.9249 140.051 48.724 139.771 49.1259C139.421 49.5779 139.351 49.4273 139.351 48.4729C139.351 47.8199 139.211 46.9659 139.001 46.6646C138.791 46.3129 137.95 44.5549 137.04 42.6963C135.359 38.9792 134.939 36.8193 134.589 28.8828C134.309 22.8048 134.239 22.1016 133.679 21.1975C133.048 20.2431 132.208 15.22 132.138 12.0554C132.138 10.3978 131.718 8.89087 131.158 7.83603C130.668 6.93187 130.177 5.37471 130.037 4.37009C129.547 2.51154 128.497 -3.11612e-06 128.006 -3.13755e-06C127.796 -3.14673e-06 127.306 1.00462 126.886 2.15993C126.186 3.96824 126.046 5.5254 125.976 12.0554C125.976 17.2794 125.696 20.2933 125.345 21.2477C124.785 22.6542 124.855 23.9602 125.625 27.3256C125.836 28.1796 126.046 30.6409 126.046 32.8008C126.046 34.9607 126.326 37.0202 126.536 37.4221C126.816 37.8239 126.816 38.6778 126.606 39.4815C126.396 40.235 126.326 40.9884 126.396 41.1391C126.606 41.7921 126.396 53.0439 126.186 54.2997C125.836 56.4094 125.555 59.1218 125.345 62.7887C125.205 64.6975 124.925 66.4555 124.645 66.6565C124.225 67.0583 123.945 66.4053 124.155 65.1998C124.155 64.9486 124.015 64.7477 123.735 64.7477C123.455 64.7477 123.385 64.5468 123.455 64.2454C123.595 63.944 123.455 63.4919 123.034 63.291C122.544 62.9394 122.544 62.7887 122.964 62.5375C123.385 62.2864 123.385 62.2361 122.964 62.2361C122.614 62.2361 122.474 61.985 122.684 61.5329C122.824 61.0808 122.684 60.7794 122.194 60.6288C121.774 60.5283 121.354 60.6288 121.284 60.8297C121.074 61.3822 119.953 62.3868 119.463 62.3868C118.833 62.3868 117.292 61.0306 117.572 60.6288C117.712 60.4278 117.572 60.3776 117.222 60.5283C116.732 60.7292 116.662 60.5283 116.872 59.9255C117.082 59.2725 117.012 59.1218 116.452 59.373C115.401 59.7748 115.121 59.0214 116.032 58.3181C116.522 57.9665 116.592 57.8158 116.172 57.9665C115.471 58.2177 114.351 56.56 114.771 55.907C114.911 55.7061 114.771 55.6559 114.561 55.8066C114.281 55.9573 114.071 55.907 114.071 55.7061C114.071 55.5052 114.351 55.3043 114.701 55.3043C115.611 55.3043 115.471 54.5508 114.631 54.5508C114.001 54.5508 114.001 54.5508 114.771 54.1992C115.261 53.9983 115.752 53.8978 115.822 53.948C115.962 53.9983 116.102 53.7471 116.102 53.3453C116.172 52.4913 115.822 52.4411 115.191 53.2448C114.841 53.6969 114.701 53.3955 114.841 51.7379C114.911 50.4821 114.841 49.7286 114.561 49.8793C114.351 50.03 114.281 49.7789 114.421 49.377C114.561 48.9249 114.421 48.6236 114.141 48.6738C113.861 48.6738 113.791 48.4729 113.931 48.2719C114.141 47.9706 113.931 47.9203 113.441 48.1715C113.02 48.3724 112.39 48.5231 112.04 48.6236C111.06 48.8245 110.78 49.7789 111.34 50.8839C111.62 51.4867 111.9 51.7379 111.9 51.4867C111.97 50.5826 112.81 50.9844 112.81 51.9388C112.81 52.642 112.6 52.843 112.18 52.7425C111.83 52.642 111.41 52.7425 111.27 52.9434C111.13 53.1946 110.78 53.1443 110.359 52.8932C109.799 52.4913 109.729 52.5416 109.939 53.0439C110.079 53.3453 109.939 53.8476 109.729 54.149C109.379 54.601 109.379 54.5508 109.519 54.0485C109.729 53.496 109.519 53.4457 108.609 53.6969C107.978 53.8476 107.348 54.149 107.208 54.2997C106.788 54.8522 105.107 54.2997 105.387 53.7471C105.527 53.3453 105.387 53.2448 104.827 53.3453C104.267 53.4457 104.057 53.3453 104.127 52.7425C104.127 52.3406 104.127 52.19 103.987 52.4913C103.847 52.7425 103.567 52.8932 103.357 52.7927C103.147 52.6923 102.726 52.9434 102.376 53.3955C102.026 53.8476 101.676 54.0485 101.466 53.948C101.326 53.7973 101.186 54.0485 101.186 54.4503C101.186 55.0531 101.116 55.0531 100.766 54.6513C100.485 54.2997 100.555 54.0485 100.906 53.8476C101.186 53.6969 101.256 53.4457 101.116 53.3453C100.836 53.1443 99.0149 53.8978 98.6647 54.4001C98.3146 54.802 96.3538 55.3545 96.6339 54.9527C96.774 54.7517 96.4938 54.4503 96.0737 54.1992C95.3734 53.8476 95.3034 53.8978 95.3734 54.802C95.3734 55.455 95.2333 55.7564 94.8832 55.7564C94.6031 55.7564 94.393 55.8066 94.393 55.9573C94.5331 56.7107 94.253 57.1628 93.6927 57.2131C93.3426 57.2131 93.0625 57.414 93.0625 57.6149C93.0625 57.8158 92.8524 57.9163 92.6423 57.8158C92.4322 57.7154 92.1521 57.8158 92.0121 58.1172C91.872 58.4186 91.802 58.3181 91.7319 57.9665C91.7319 57.6149 91.5219 57.3135 91.3818 57.3135C91.1717 57.3135 91.1017 56.761 91.1017 56.0577C91.1017 55.3545 91.0317 54.8522 90.8216 55.0029C90.6115 55.1033 90.4714 54.8522 90.4714 54.4503C90.4714 53.9983 90.2614 53.7973 90.0513 53.8978C89.8412 54.0485 89.6311 53.948 89.6311 53.6969C89.6311 53.4457 89.351 53.3955 88.9308 53.5462C88.3706 53.7471 88.3006 53.6969 88.7908 53.2448C89.2109 52.7425 89.2109 52.642 88.7207 52.6923C88.3706 52.6923 87.9504 53.0439 87.8804 53.496C87.7403 53.948 87.3202 54.2494 86.76 54.2997C85.9897 54.2997 85.9196 54.1992 86.1297 53.295C86.3398 52.4411 86.2698 52.3909 85.9196 52.9434C85.4994 53.5462 85.3594 53.5462 84.379 52.843C83.8188 52.4411 83.3286 51.8383 83.3286 51.537C83.3286 50.4319 82.9084 51.4365 82.6983 52.9434C82.5583 53.8476 82.6983 54.4001 82.9084 54.2494C83.1185 54.0987 83.3286 54.1992 83.3286 54.4001C83.3286 54.601 83.1885 54.8522 82.9785 54.9527C82.7684 55.0531 82.6283 55.7061 82.6983 56.3591C82.6983 57.0121 82.6283 57.7656 82.3482 58.0167C82.1381 58.2679 82.1381 58.5693 82.3482 58.6697C82.6283 58.8204 82.6283 59.1218 82.3482 59.5739C82.1381 59.9757 81.928 60.679 81.928 61.1311C81.928 62.4371 81.5079 66.9579 81.2277 67.3095C81.0877 67.5606 80.4574 71.6293 80.3874 72.8349C80.3874 73.4879 78.3566 73.4879 77.7964 72.8349C77.5163 72.5335 76.816 72.2823 76.1157 72.2823C75.4154 72.2823 74.9953 72.0814 75.1353 71.78C75.2754 71.5289 75.1353 71.4284 74.7852 71.5289C74.435 71.6796 74.0849 71.3782 73.9448 70.6749C73.6647 69.4694 72.7544 68.6657 72.0541 69.0173C71.844 69.168 71.774 68.9169 71.844 68.515C71.9841 67.9625 71.844 67.7615 71.3538 67.8118C70.9336 67.8118 70.5135 67.5104 70.3734 67.1085C70.1633 66.3048 69.6031 66.2044 69.1829 66.8574C68.9728 67.1588 69.0429 67.209 69.393 67.0081C69.6731 66.8574 69.8832 66.8574 69.8132 67.0081C69.6731 67.8118 69.8832 68.2136 70.5135 68.2136C71.4238 68.2136 71.0737 69.0676 70.0933 69.2685C69.6731 69.3689 69.393 69.2685 69.463 69.1178C69.6731 68.1132 69.323 67.5104 68.5527 67.5606C68.0625 67.5606 67.7824 67.7615 67.9224 67.9625C68.0625 68.1634 67.7824 68.3141 67.2922 68.3643C66.802 68.3643 66.3818 68.6155 66.3818 68.9169C66.3818 69.2182 66.1017 69.5196 65.7516 69.6703C65.4014 69.821 65.1913 69.7708 65.3314 69.5699C65.4714 69.3689 65.3314 69.168 65.0513 69.0676C64.7712 69.0173 64.8412 68.9671 65.2614 69.0173C65.6815 69.0173 66.0317 68.9169 66.0317 68.7662C66.0317 68.5652 65.8216 68.4648 65.5415 68.4648C65.2613 68.4648 65.4014 68.2136 65.8916 67.9122C66.5219 67.5104 66.802 67.4602 67.0121 67.7615C67.1521 68.0127 67.2922 67.862 67.2221 67.4099C67.2221 66.7569 66.0317 66.3048 66.0317 66.9578C66.0317 67.1085 65.4714 67.3597 64.7712 67.5104C63.7908 67.7113 63.5107 67.9625 63.5107 68.7159C63.5107 69.2182 63.3006 69.6703 63.0905 69.6703C62.8804 69.6703 62.6703 70.0219 62.6703 70.4238C62.6703 71.2275 63.3006 71.3782 63.7207 70.7252C64.2109 70.0219 64.7011 70.6247 64.5611 71.8303C64.421 73.3372 63.9308 73.739 63.8608 72.3828C63.8608 71.3279 63.8608 71.3279 63.5107 72.2321L63.2305 73.1865L62.7404 72.3828C62.1801 71.4786 61.4098 71.3279 61.4098 72.1819C61.4098 72.4833 61.6199 72.634 61.83 72.4833C62.0401 72.3326 62.2501 72.433 62.2501 72.634C62.2501 72.8349 61.83 73.0358 61.4098 73.086C60.9196 73.086 60.5695 73.3874 60.5695 73.739C60.5695 74.2916 60.4995 74.2916 59.9392 73.6888C59.449 73.1363 59.449 72.9353 59.9392 72.7846C60.2894 72.634 60.3594 72.3326 60.2194 71.8805C59.9392 71.2275 59.8692 71.2275 59.2389 71.8805C58.8188 72.2321 58.5387 72.7846 58.5387 73.086C58.5387 73.5381 58.0485 73.7893 57.1381 73.739C56.928 73.739 56.788 73.9902 56.788 74.2916C56.788 74.593 56.5779 74.7939 56.3678 74.6934C55.8776 74.4423 55.3874 75.1455 55.7375 75.6478C55.9476 75.899 56.2277 75.899 56.6479 75.5473C57.0681 75.1957 57.2782 75.1957 57.2782 75.5473C57.2782 75.9994 56.788 76.0999 55.3874 76.0497C54.337 76.0497 53.8468 76.7027 53.8468 78.4105C53.8468 79.2142 53.6367 79.7667 53.3566 79.7165C53.0765 79.7165 52.8664 80.47 52.8664 81.8764C52.8664 83.082 52.6563 84.2875 52.4462 84.5889C52.2362 84.8401 52.1661 85.5433 52.2361 86.1461C52.3762 86.8995 52.2362 87.3516 51.746 87.7032C51.3258 88.0046 51.1857 88.0548 51.3258 87.8539C51.5359 87.653 50.8356 87.1005 49.8552 86.5479C48.8748 86.0456 48.2446 85.5935 48.4546 85.5935C48.6647 85.5935 48.4546 85.2419 48.1045 84.8903C47.6843 84.4885 47.1241 84.1871 46.844 84.2373C46.5639 84.2373 46.7039 84.4382 47.1241 84.5889C47.5443 84.7898 47.8944 85.1917 47.8944 85.5433C47.8944 85.9954 47.7544 86.0456 47.4042 85.7442C47.1241 85.5433 46.6339 85.4428 46.2838 85.5935C45.7936 85.7945 45.7936 85.8949 46.2838 86.0958C46.7039 86.2968 46.6339 86.3972 46.0037 86.3972C44.9532 86.3972 43.5527 85.6438 43.9728 85.2419C44.1129 85.0912 44.0429 85.041 43.7628 85.2419C43.4827 85.3926 43.3426 85.694 43.4826 85.8447C43.6227 86.0456 43.4827 86.1963 43.2726 86.1963C43.0625 86.1963 42.7124 86.0456 42.5723 85.8949C42.2221 85.4428 40.9617 85.8949 40.2614 86.7991C39.9813 87.2009 39.4911 87.4018 39.281 87.3014C39.0009 87.1507 38.9308 87.4018 39.1409 87.9544C39.421 88.6576 39.351 88.7581 38.8608 88.4065C38.1605 87.9042 36.9 87.9042 36.6899 88.4065C36.5499 88.7581 35.7796 88.9088 34.0989 88.8083C33.6787 88.8083 33.3286 88.4567 33.3286 88.0046C33.3286 87.5525 33.1885 87.4018 32.9785 87.653C32.5583 88.2558 31.2277 88.6576 30.9476 88.306C30.8076 88.1553 30.9476 87.9042 31.2277 87.8037C31.5079 87.7032 31.6479 87.5023 31.5079 87.4018C31.3678 87.3014 31.0177 87.4018 30.6675 87.5525C30.1773 87.8539 30.1773 88.0046 30.8776 88.6074C31.6479 89.3106 31.6479 89.3106 30.8776 89.4111C30.4574 89.4111 30.3174 89.5618 30.5975 89.6622C30.8776 89.7627 31.1577 90.0139 31.1577 90.2148C31.1577 90.4157 30.8776 90.5162 30.5275 90.4157C30.1773 90.3152 29.8972 90.3655 29.9672 90.5162C29.9672 90.6669 29.8272 91.2696 29.5471 91.8222C29.267 92.3747 29.1269 93.0277 29.267 93.2286C29.407 93.4296 29.267 93.5803 29.0569 93.5803C28.7768 93.5803 28.7067 93.7309 28.8468 93.9319C28.9868 94.1328 28.8468 94.3839 28.7068 94.4844C28.4967 94.6351 28.2866 94.9867 28.2866 95.3383C28.2866 96.343 28.0765 96.996 27.0261 98.7038C26.4658 99.608 26.0457 100.562 26.0457 100.814C26.0457 101.115 25.8356 101.416 25.5555 101.517C24.9953 101.718 24.7151 105.133 25.2754 105.133C25.4154 105.133 25.4154 105.585 25.2754 106.138C24.9252 107.243 24.9952 109.604 25.4154 111.262C25.6255 112.115 25.4855 112.417 24.6451 112.869C24.0849 113.17 23.4546 113.321 23.1745 113.221C22.6143 112.919 22.1941 110.458 22.1241 106.389C22.1241 104.48 21.844 102.521 21.5639 102.12C21.2838 101.667 21.0737 101.215 21.1437 101.014C21.2137 100.814 21.1437 100.11 21.1437 99.4071C21.1437 98.4024 20.8636 98.0508 20.2333 97.9001C19.5331 97.7997 19.393 97.9001 19.393 98.754C19.393 99.7084 19.393 99.7084 18.7628 99.0554C18.2025 98.4527 18.1325 98.754 18.2025 101.768C18.2025 103.626 18.4126 105.133 18.5527 105.133C18.6927 105.133 18.7628 105.585 18.6927 106.138C18.3426 108.65 17.9224 112.467 17.9224 113.874C17.9224 114.727 17.7124 115.33 17.5723 115.23C17.3622 115.129 17.2221 115.38 17.1521 115.732C17.0121 117.189 16.942 117.54 16.5919 118.193C16.3818 118.545 15.5415 119.248 14.6311 119.65C13.0205 120.454 12.0401 121.659 12.8804 121.86C13.2306 121.961 13.1605 122.162 12.8804 122.564C12.5303 122.915 12.5303 123.217 12.7404 123.367C13.1605 123.618 13.1605 129.546 12.7404 129.947C12.6003 130.098 12.6703 130.349 12.8804 130.6C13.3006 131.053 13.2306 133.263 12.7404 133.966C12.6003 134.217 12.6003 134.92 12.8804 135.624C13.0905 136.327 13.3706 139.943 13.4406 143.661C13.5107 147.378 13.7207 152.602 13.7908 155.264C14.351 169.429 14.421 173.799 14.281 182.64C14.2109 189.572 14.281 192.334 14.6311 192.284C14.9813 192.284 14.9813 192.385 14.6311 192.786C14.1409 193.289 14.0009 195.499 14.0709 201.928C14.0709 203.837 14.0709 205.595 14.0709 205.796C14.0709 205.997 13.8608 208.006 13.5807 210.267C13.3706 212.527 13.2306 214.637 13.3706 214.938C13.5107 215.29 13.3706 215.641 13.2306 215.742C13.0205 215.842 12.8104 217.349 12.7403 219.007C12.7403 220.715 12.4602 223.025 12.1801 224.231C11.9701 225.386 11.6199 228.501 11.5499 231.062C11.4098 233.674 11.2698 236.939 11.1297 238.396C11.0597 239.803 11.1297 241.309 11.3398 241.661C11.5499 242.013 11.5499 242.264 11.3398 242.163C11.1297 242.063 10.9896 243.52 10.9896 245.529C10.9896 247.488 10.7796 249.698 10.4995 250.401C10.0793 251.406 10.0793 251.758 10.4995 251.958C10.8496 252.109 10.8496 252.21 10.4995 252.21C10.2193 252.21 10.0093 253.264 9.93923 254.922C9.79918 258.589 9.65912 269.74 9.79917 272.001C9.79917 273.005 9.79917 275.316 9.58908 277.174C9.23894 281.595 9.02887 288.426 9.30898 288.426C9.65912 288.426 9.44902 290.184 8.8888 293.148C8.60869 294.655 8.46865 296.312 8.60869 296.865C8.95883 298.121 9.09889 300.582 8.74875 300.632C8.60871 300.632 8.46863 301.084 8.46863 301.637C8.46863 311.934 7.48825 331.474 7.06809 332.127C6.92803 332.278 7.06807 332.428 7.20813 332.378C7.41821 332.378 7.48825 332.881 7.41821 333.483C7.27817 334.086 7.41821 334.89 7.55827 335.241C7.97844 336.045 8.04848 337.502 7.69833 337.351C7.55827 337.301 7.48825 340.064 7.48825 343.58C7.48825 347.046 7.55827 349.909 7.62831 349.909C7.62831 349.909 7.69832 350.964 7.76836 352.219C7.76836 353.475 7.76836 354.53 7.55827 354.53C7.41821 354.53 7.41821 355.133 7.55827 355.836C7.76836 356.539 7.76836 357.192 7.55827 357.293C7.41821 357.393 7.27815 358.95 7.27815 360.809C7.27815 362.818 7.13811 364.174 6.85799 364.174C6.57788 364.174 6.6479 364.325 6.85799 364.426C7.41821 364.727 7.34819 367.54 6.85799 367.942C6.57788 368.143 6.57788 368.243 6.85799 368.243C7.06808 368.243 7.27815 368.846 7.20813 369.599C7.20813 370.353 7.34819 371.357 7.48825 371.809C7.69833 372.312 7.69833 372.915 7.48825 373.367C7.06808 374.02 6.92802 375.577 6.3678 383.564C6.22774 385.623 5.94763 388.938 5.73755 390.948C5.52746 392.957 5.31738 397.578 5.24736 401.094C5.24736 404.661 5.03726 408.227 4.82718 409.031C4.61709 409.834 4.40701 414.355 4.33697 419.027C4.19693 429.977 3.77676 438.265 3.28656 441.53C3.07647 442.987 2.58628 446.101 2.23614 448.412C1.886 450.773 1.32577 454.691 1.04566 457.152C0.765559 459.613 0.415416 462.376 0.275355 463.28C-0.144811 466.294 -0.0747886 469.358 0.415415 471.769C0.765559 473.326 0.905603 478.048 0.835581 484.93C0.83558 490.857 0.83558 495.83 0.905603 495.93C0.975625 496.081 1.18572 502.31 1.25575 509.794C1.39581 517.278 1.53585 524.763 1.60589 526.37C2.16611 535.462 2.30616 542.344 2.16611 557.513C2.16611 559.623 2.16611 561.984 2.23614 562.687C2.3762 564.194 2.72634 571.277 2.93642 577.957C3.42661 592.374 3.56665 597.698 3.63669 607.443C3.63669 613.32 3.84677 618.695 3.98684 619.398C4.1269 620.101 4.26694 622.01 4.33696 623.617C4.47702 626.631 4.8972 630.047 5.24735 630.449C5.31737 630.599 5.52745 631.805 5.59748 633.211C5.73754 634.568 5.94762 636.728 6.22772 637.933C6.43781 639.139 6.71793 640.646 6.78795 641.248C6.85797 641.851 7.34818 643.659 7.83837 645.317C8.32857 646.975 8.74874 648.632 8.67871 649.034C8.67871 649.436 8.81876 649.788 9.02884 649.788C9.23892 649.788 9.379 649.988 9.379 650.24C9.379 652.751 10.0092 658.678 10.3594 659.583C10.5695 660.236 11.3398 661.09 12.0401 661.491C13.4406 662.295 14.7712 664.455 15.1213 666.464C15.6115 669.026 16.0316 673.396 15.8916 674.351C15.8916 674.853 15.9616 675.305 16.2417 675.255C16.5219 675.255 16.5919 675.355 16.3818 675.506C16.2417 675.656 16.4518 676.109 16.942 676.51C17.4322 676.912 18.4126 678.319 19.2529 679.675C20.4434 681.634 20.7935 682.588 20.8636 684.698C21.0036 687.461 21.4238 687.963 23.0344 687.561C24.0849 687.36 24.9252 685.803 24.9952 684.196C24.9952 683.744 25.2053 683.241 25.4154 683.091C25.6255 682.94 25.8356 682.287 25.8356 681.584C25.8356 679.625 26.7459 676.561 27.3062 676.561C28.2165 676.561 29.337 679.273 29.477 682.036C29.547 683.543 29.7571 686.958 29.8272 689.721C30.1073 695.247 30.1773 695.799 31.0877 696.05C32.4182 696.402 36.83 691.128 38.7907 686.858C39.421 685.502 40.0513 684.799 41.1017 684.296C42.8524 683.442 43.6927 683.744 45.2333 685.904C45.7935 686.758 46.5639 687.411 46.914 687.411C47.2641 687.411 47.8244 687.611 48.1745 687.913C49.1549 688.717 50.2053 688.465 51.0456 687.21C51.4658 686.557 52.5863 685.301 53.5667 684.397C55.0372 682.99 55.3174 682.438 55.4574 680.931C55.5975 679.575 55.8776 678.922 56.5779 678.469C57.0681 678.118 57.6983 677.867 57.8384 677.967C58.0485 678.068 58.1885 677.967 58.1885 677.766C58.1885 677.565 58.6087 677.163 59.1689 676.912C59.7291 676.661 60.0092 676.561 59.7991 676.711C59.379 677.113 60.6395 678.068 61.1297 677.766C61.4098 677.615 61.4798 677.766 61.3398 678.218C61.1997 678.57 61.4798 678.218 61.97 677.364C62.4602 676.51 62.8103 675.305 62.8103 674.652C62.8103 673.999 63.0204 673.045 63.2305 672.492C63.5106 671.789 63.5106 671.538 63.1605 671.538C62.8804 671.538 62.9504 671.387 63.3706 671.136C64.7711 670.382 66.2417 670.985 67.2921 672.793C67.8524 673.748 68.7627 674.702 69.323 675.004C69.8832 675.305 70.5835 676.159 70.7935 676.963C71.7739 679.876 74.0148 680.228 74.8552 677.615C75.4154 676.008 76.7459 675.154 78.2165 675.556C78.9868 675.757 79.337 675.757 79.337 675.506C79.337 674.803 80.3874 674.099 81.4378 674.099C82.4882 674.099 82.4882 674.099 83.3286 670.935C83.4686 670.433 84.0989 669.478 84.7291 668.825C85.3594 668.172 86.1297 667.218 86.4798 666.615C86.83 666.062 87.3902 665.56 87.7403 665.56C88.5106 665.56 89.351 664.154 89.561 662.546C89.7711 660.788 90.3314 660.085 91.4518 659.934C92.3622 659.834 94.393 661.19 94.393 661.943C94.393 662.396 96.844 664.355 97.3342 664.355C98.0344 664.355 98.5947 662.948 98.8047 660.386C98.9448 658.98 99.2949 656.971 99.505 655.966C99.9252 654.258 101.116 648.23 101.326 646.824C101.396 646.271 102.936 645.92 102.936 646.472C102.936 646.623 103.287 646.573 103.707 646.372C104.127 646.171 104.617 646.07 104.827 646.221C105.387 646.673 110.78 646.221 111.41 645.719C111.76 645.417 112.04 644.463 112.11 643.509C112.25 642.002 112.88 640.947 113.581 641.299C113.721 641.349 114.071 641.148 114.351 640.846C114.631 640.545 114.771 640.294 114.561 640.344C114.421 640.344 114.491 640.143 114.771 639.892C115.121 639.54 115.121 639.289 114.771 638.988C114.421 638.636 114.421 638.234 114.841 637.381C115.752 635.472 117.012 636.024 117.502 638.536C118.062 641.349 118.343 641.952 118.833 641.499C118.973 641.399 119.183 638.737 119.253 635.673C119.463 629.092 119.813 628.339 122.894 627.636C123.875 627.435 125.485 626.782 126.326 626.279C127.796 625.426 129.687 624.722 130.738 624.622C130.948 624.622 131.228 624.019 131.298 623.316C131.368 622.462 131.718 622.01 132.278 621.859C132.698 621.759 132.978 621.508 132.838 621.307C132.698 621.106 132.838 621.005 133.048 620.955C133.259 620.955 133.959 620.151 134.589 619.197C136.34 616.484 137.81 616.083 138.651 617.991C139.071 618.896 139.351 618.896 141.172 618.192C142.502 617.69 143.343 618.845 144.463 622.763C145.513 626.581 146.284 627.586 147.124 626.48C147.684 625.777 147.124 620.804 145.864 612.968C145.233 609.402 145.583 607.895 147.194 607.041C148.805 606.187 149.225 605.333 149.505 602.872C149.715 600.812 150.906 598.904 151.956 598.853C152.586 598.853 153.217 600.411 153.287 602.319C153.287 603.726 154.407 605.383 154.757 604.529C154.897 604.278 155.247 603.776 155.597 603.475C155.948 603.173 156.088 602.922 155.948 602.922C155.457 602.922 157.068 600.612 157.908 600.159C158.959 599.557 160.359 597.598 160.359 596.794C160.219 594.885 160.569 592.374 160.92 592.323C161.55 592.323 163.441 594.132 163.16 594.534C163.02 594.734 163.16 594.785 163.371 594.634C163.651 594.483 163.931 594.534 164.071 594.734C164.211 594.935 164.561 594.986 164.771 594.835C164.981 594.684 165.471 594.835 165.822 595.036C166.802 595.689 167.222 595.036 167.432 592.173C167.572 590.766 167.852 588.807 168.062 587.903C168.273 586.999 168.903 583.885 169.463 581.021C169.953 578.158 170.794 574.893 171.214 573.738C171.704 572.583 172.054 570.624 172.054 569.368C172.054 568.112 172.474 565.852 172.964 564.395C173.805 561.833 173.805 560.979 173.665 548.773C173.595 541.691 173.455 534.457 173.385 532.749C173.174 528.279 172.684 522.753 172.544 522C172.474 521.648 172.264 517.329 172.194 512.406C171.984 505.374 172.124 502.41 172.684 498.442C173.034 495.679 173.525 490.606 173.665 487.19C173.805 483.774 174.015 480.359 174.155 479.605C174.505 477.043 175.275 468.253 175.485 463.079C175.625 460.216 175.976 455.092 176.186 451.626C176.396 448.161 176.746 441.178 176.956 436.105C177.096 431.032 177.306 426.36 177.446 425.758C177.516 425.155 177.726 420.986 177.936 416.465C178.146 411.994 178.357 407.825 178.427 407.222C178.567 406.067 178.847 403.304 179.617 393.359C180.247 385.573 180.878 379.746 181.648 374.924C181.998 372.814 182.278 370.453 182.278 369.7C182.278 368.946 182.488 367.791 182.698 367.188C182.908 366.585 183.189 365.028 183.329 363.773C183.469 362.467 183.959 359.804 184.449 357.795C184.939 355.786 185.429 353.174 185.569 351.968C185.71 350.763 185.99 348.502 186.27 346.945C186.48 345.388 186.83 343.178 186.9 341.922C187.04 340.717 187.46 337.904 187.81 335.643C188.16 333.433 188.581 330.268 188.791 328.611C189.001 326.953 189.211 324.643 189.421 323.437C189.631 322.282 189.771 319.268 189.841 316.756C189.911 314.245 190.121 310.98 190.331 309.423C190.752 306.409 191.242 299.979 191.312 295.006C191.312 293.299 191.522 291.088 191.732 290.184C191.942 289.28 192.222 282.951 192.432 276.12C192.572 269.338 192.852 263.411 192.922 262.959C192.992 262.507 193.273 258.941 193.413 255.023C193.623 251.105 193.833 247.036 193.903 246.031C193.973 245.027 194.183 241.259 194.323 237.693C194.463 234.126 194.743 229.807 194.953 228.099C195.093 226.391 195.233 224.784 195.163 224.583C195.163 224.382 195.303 221.82 195.513 218.856C195.794 215.893 196.144 211.824 196.284 209.764C196.424 207.705 196.634 205.495 196.704 204.741C196.774 203.988 197.054 201.175 197.194 198.462C197.334 195.75 197.544 193.389 197.614 193.289C197.684 193.188 197.894 191.028 198.034 188.467C198.175 185.905 198.385 183.494 198.525 183.092C198.735 182.338 199.435 156.168 199.575 144.866C199.575 141.501 199.575 135.975 199.365 132.509L199.785 132.409ZM147.614 58.9209C147.614 58.9209 147.194 58.9209 146.704 58.6195C145.934 58.067 145.864 57.6149 146.004 55.4047C146.074 53.9983 146.354 52.7425 146.564 52.6923C147.194 52.4913 147.894 55.0029 147.754 56.9619C147.684 57.8661 147.614 58.7702 147.614 58.9711L147.614 58.9209ZM124.365 68.7662C124.365 68.7662 124.155 68.6155 124.155 68.4146C124.155 68.2136 124.365 68.0127 124.575 68.0127C124.855 68.0127 124.925 68.1634 124.785 68.3643C124.645 68.5652 124.435 68.7662 124.365 68.7662ZM111.76 50.5826C111.76 50.5826 111.48 50.3314 111.34 50.03C111.2 49.7286 111.27 49.5779 111.48 49.6784C111.9 49.8793 112.04 50.5826 111.76 50.5826ZM98.1745 55.3545C97.7543 55.0029 97.8244 54.9527 98.3846 55.1536C98.8048 55.254 99.0149 55.455 98.8748 55.6057C98.7347 55.7061 98.3846 55.6057 98.1045 55.4047L98.1745 55.3545ZM93.0625 58.5191C92.6423 58.1674 92.7123 58.1172 93.2726 58.3181C93.6927 58.4186 93.9028 58.6195 93.7628 58.7702C93.6227 58.8707 93.2726 58.7702 92.9924 58.5693L93.0625 58.5191ZM90.6815 55.8568C90.6815 55.8568 90.2614 55.5554 90.2614 55.5052C90.2614 55.4047 90.4714 55.3545 90.6815 55.3043C90.8916 55.3043 91.1017 55.455 91.1017 55.6559C91.1017 55.8568 90.8916 55.9573 90.6815 55.8568ZM70.3034 71.4786C70.1633 71.2275 70.2333 70.8759 70.3034 70.7754C70.4434 70.6247 70.5135 70.8759 70.5135 71.2275C70.5135 71.6796 70.3734 71.7298 70.2333 71.4786L70.3034 71.4786ZM69.1829 71.4786C68.6227 70.9261 67.0121 70.1224 66.5219 70.1224C66.3818 70.1224 66.5219 70.3736 66.802 70.6749C67.5023 71.3782 67.0121 71.8303 66.1717 71.2777C65.4014 70.7754 66.0317 69.821 67.0821 69.7708C67.4322 69.7708 67.5723 69.6201 67.5023 69.4694C67.3622 69.3187 67.6423 69.168 68.1325 69.1178C68.6927 69.0676 68.9729 69.2685 68.9729 69.7206C68.9729 70.1224 69.1829 70.4238 69.393 70.4238C69.6031 70.4238 69.8132 70.7754 69.8132 71.2275C69.8132 71.9307 69.7431 71.9809 69.253 71.5289L69.1829 71.4786ZM68.2726 69.2685C68.2726 69.2685 67.9924 69.4694 67.8524 69.6703C67.7123 69.8712 67.8524 70.0219 68.0625 70.0219C68.3426 70.0219 68.4826 69.821 68.4826 69.6201C68.4826 69.4192 68.4126 69.2685 68.2726 69.2685ZM59.379 76.2506C58.8188 76.2506 58.6787 76.2506 58.9588 76.1501C59.2389 76.0497 59.379 75.7985 59.2389 75.6478C59.0989 75.4469 59.2389 75.3967 59.6591 75.4971C60.6395 75.7483 60.4294 76.1501 59.379 76.2506ZM59.0289 74.3418C58.2586 74.7939 58.1185 74.3418 58.8188 73.7893C59.2389 73.4879 59.449 73.4376 59.449 73.6888C59.449 73.8897 59.2389 74.1911 58.9588 74.3418L59.0289 74.3418ZM44.393 87.0502C44.393 87.0502 44.1129 86.7991 43.9728 86.4977C43.8328 86.1963 43.9729 85.9452 44.1129 85.9452C44.323 85.9452 44.5331 86.1963 44.5331 86.4977C44.5331 86.7991 44.4631 87.0502 44.393 87.0502ZM158.048 21.75C158.048 21.75 157.558 21.9509 157.348 22.1518C157.208 22.3528 157.348 22.5035 157.768 22.5035C158.118 22.5035 158.399 22.3025 158.469 22.1016C158.469 21.9007 158.259 21.75 158.048 21.75ZM123.034 38.5271C123.034 38.5271 122.684 39.1299 122.754 39.4313C122.824 39.6824 123.034 39.5318 123.175 39.0294C123.385 38.4267 123.315 38.276 122.964 38.5774L123.034 38.5271ZM123.034 43.7512C122.754 43.3995 122.614 43.3493 122.544 43.7009C122.404 44.5046 122.334 44.7055 122.054 45.1576C121.844 45.4088 121.984 45.7102 122.194 45.8609C122.474 46.0115 122.544 45.9613 122.404 45.7102C122.194 45.459 122.404 45.3083 122.754 45.2581C123.525 45.2581 123.595 44.5549 123.034 43.7512ZM122.124 41.8926C121.774 42.194 121.774 42.4451 122.054 42.6963C122.334 42.9475 122.474 42.7465 122.544 42.2442C122.544 41.6415 122.544 41.541 122.124 41.8926ZM115.541 51.4867C115.191 51.4867 114.981 51.6876 115.121 51.8886C115.261 52.0895 115.541 52.2402 115.752 52.2402C115.962 52.2402 116.172 52.0393 116.172 51.8383C116.172 51.6374 115.892 51.4867 115.541 51.4867ZM108.399 52.2402C107.068 52.8932 106.998 52.9937 108.048 52.843C108.539 52.7927 109.029 52.5416 109.169 52.2402C109.309 51.8383 109.169 51.8383 108.469 52.2402L108.399 52.2402ZM92.7824 55.2038C92.5723 54.9024 92.3622 55.1034 92.1521 55.7564C91.802 57.0121 92.0121 57.213 92.6423 56.3089C92.9224 55.907 92.9924 55.4047 92.7824 55.1536L92.7824 55.2038ZM64.0009 64.0445C64.0009 64.0445 63.8608 64.4965 64.0009 64.7477C64.1409 65.0491 64.2109 64.9486 64.281 64.4965C64.281 64.0947 64.2109 63.8938 64.0709 64.0445L64.0009 64.0445ZM62.2501 65.25C62.2501 65.25 62.1101 65.7021 62.2501 65.9532C62.3902 66.2546 62.4602 66.1542 62.5303 65.7021C62.5303 65.3002 62.4602 65.0993 62.3202 65.25L62.2501 65.25ZM56.788 72.0814C56.3678 72.0814 56.0877 72.1819 56.2277 72.2823C56.3678 72.3828 56.7179 72.3828 57.0681 72.2823C57.4182 72.1316 57.2782 72.0814 56.788 72.0814ZM33.0485 86.1461C32.7684 85.8447 32.6283 85.7945 32.6283 86.0456C32.6283 86.2968 32.8384 86.5982 33.0485 86.6986C33.6087 86.9498 33.6087 86.8493 33.0485 86.1461Z" fill="#A8B692"/>
</svg>