<svg viewBox="0 0 41 41" fill="none" xmlns="http://www.w3.org/2000/svg">
<path d="M20.3125 11.375C18.5448 11.375 16.8169 11.8992 15.3471 12.8812C13.8773 13.8633 12.7318 15.2592 12.0553 16.8923C11.3789 18.5254 11.2019 20.3224 11.5467 22.0561C11.8916 23.7898 12.7428 25.3823 13.9927 26.6323C15.2427 27.8822 16.8352 28.7334 18.5689 29.0783C20.3026 29.4231 22.0996 29.2461 23.7327 28.5697C25.3658 27.8932 26.7617 26.7477 27.7438 25.2779C28.7258 23.8081 29.25 22.0802 29.25 20.3125C29.2473 17.943 28.3048 15.6712 26.6293 13.9957C24.9538 12.3202 22.682 11.3777 20.3125 11.375ZM20.3125 27.625C18.8662 27.625 17.4524 27.1961 16.2499 26.3926C15.0474 25.5891 14.1101 24.4471 13.5566 23.1109C13.0032 21.7747 12.8584 20.3044 13.1405 18.8859C13.4227 17.4674 14.1191 16.1645 15.1418 15.1418C16.1645 14.1191 17.4674 13.4227 18.8859 13.1405C20.3044 12.8584 21.7747 13.0032 23.1109 13.5566C24.4471 14.1101 25.5891 15.0474 26.3926 16.2499C27.1961 17.4524 27.625 18.8662 27.625 20.3125C27.625 22.2519 26.8546 24.1119 25.4832 25.4832C24.1119 26.8546 22.2519 27.625 20.3125 27.625ZM30.0625 0H10.5625C7.76214 0.0032256 5.0774 1.11709 3.09725 3.09725C1.11709 5.0774 0.0032256 7.76214 0 10.5625V30.0625C0.0032256 32.8629 1.11709 35.5476 3.09725 37.5278C5.0774 39.5079 7.76214 40.6218 10.5625 40.625H30.0625C32.8629 40.6218 35.5476 39.5079 37.5278 37.5278C39.5079 35.5476 40.6218 32.8629 40.625 30.0625V10.5625C40.6218 7.76214 39.5079 5.0774 37.5278 3.09725C35.5476 1.11709 32.8629 0.0032256 30.0625 0ZM39 30.0625C38.9973 32.432 38.0548 34.7038 36.3793 36.3793C34.7038 38.0548 32.432 38.9973 30.0625 39H10.5625C8.19295 38.9973 5.92123 38.0548 4.2457 36.3793C2.57018 34.7038 1.62769 32.432 1.625 30.0625V10.5625C1.62769 8.19295 2.57018 5.92123 4.2457 4.2457C5.92123 2.57018 8.19295 1.62769 10.5625 1.625H30.0625C32.432 1.62769 34.7038 2.57018 36.3793 4.2457C38.0548 5.92123 38.9973 8.19295 39 10.5625V30.0625ZM32.5 9.75C32.5 10.0714 32.4047 10.3856 32.2261 10.6528C32.0476 10.92 31.7938 11.1283 31.4969 11.2513C31.1999 11.3743 30.8732 11.4065 30.558 11.3438C30.2428 11.2811 29.9532 11.1263 29.726 10.899C29.4987 10.6718 29.3439 10.3822 29.2812 10.067C29.2185 9.7518 29.2507 9.42507 29.3737 9.12814C29.4967 8.83121 29.705 8.57742 29.9722 8.39886C30.2394 8.2203 30.5536 8.125 30.875 8.125C31.306 8.125 31.7193 8.29621 32.024 8.60095C32.3288 8.9057 32.5 9.31902 32.5 9.75Z" fill="#FFF9F0"/>
</svg>
