<svg width="2350" height="2062" viewBox="0 0 2350 2062" fill="none" xmlns="http://www.w3.org/2000/svg">
<path d="M1977.64 2059.91C1988.82 2057.54 2007.48 2053.82 2019.37 2052.15C2061.33 2045.12 2087.3 2040.09 2090.79 2038.3C2092.69 2037.4 2100.38 2034.54 2107.85 2033.2C2115.33 2031.87 2123.34 2028.98 2125.52 2027.3C2127.69 2025.62 2132.92 2022.94 2137.18 2022.61C2151.09 2019.27 2163.72 2012.24 2173.18 2002.44C2176.82 1998.38 2180.47 1996.58 2181.24 1998.03C2182.01 1999.49 2182.06 1997.97 2181.39 1995.75C2180.5 1992.8 2184.42 1990.23 2193.27 1989.54C2200.47 1988.98 2207.07 1986.96 2207.94 1985.38C2208.8 1983.8 2209.14 1975.46 2208.77 1966.41C2208.03 1948.32 2208.95 1945.23 2219.83 1936.83C2223.85 1933.49 2230.1 1926.96 2233.68 1922.14C2237.26 1917.33 2241.44 1911.71 2242.96 1910.08C2247.58 1905.94 2246.66 1896.19 2239.91 1877.05C2232.72 1856.44 2227.6 1847.76 2218.28 1840.16C2212.14 1835.34 2202.59 1814.16 2201.67 1804.4C2201.38 1800.64 2205.99 1794.23 2213.01 1789.15C2214.86 1787.5 2221.07 1784.75 2227.07 1783.53C2232.85 1781.57 2240.42 1777.2 2243.9 1773.15C2247.7 1769.08 2255.82 1765.43 2264.72 1765.49C2280.6 1764.26 2286.85 1757.73 2286.45 1741.88C2286.37 1736.6 2288.51 1728.11 2292.19 1720.27C2295.43 1713.21 2297.63 1705.48 2297.19 1704C2296.69 1701.77 2296.96 1701 2298.06 1702.42C2302.39 1707.38 2307.37 1697.17 2308.17 1681.98C2309.02 1665.28 2306.65 1649.59 2303.21 1649.85C2302.23 1649.93 2301.3 1648.49 2301.12 1646.23C2300.95 1643.98 2297.06 1642.77 2292.53 1641.61C2288.05 1641.2 2283.88 1638.49 2283.55 1636.25C2283.04 1634.02 2281.72 1631.86 2280.58 1631.94C2279.27 1632.05 2277.78 1629.89 2277.12 1627.68C2276.45 1625.46 2275.46 1623.27 2274.8 1623.32C2274.15 1623.37 2273.94 1624.9 2274.6 1627.11C2275.1 1629.34 2273.91 1630.95 2271.89 1630.35C2269.76 1630.51 2268.05 1627.62 2267.82 1624.61C2267.59 1621.61 2266.81 1620.16 2266.28 1621.71C2265.74 1623.26 2265.19 1622.55 2265.01 1620.29C2264.49 1613.53 2267.2 1610.3 2273 1612.87C2275.91 1614.16 2280.54 1612.29 2283.31 1609.81C2286.03 1606.57 2288.9 1603.32 2289.89 1603.25C2290.87 1603.17 2292.44 1600.03 2293.47 1598.43C2294.5 1596.84 2296.4 1595.94 2297.83 1597.34C2301.18 1600.11 2301.69 1594.02 2298.65 1586.69C2297.44 1583.76 2296.56 1583.07 2296.74 1585.33C2296.91 1587.58 2296.58 1587.61 2295.75 1585.4C2293.53 1578.01 2287.92 1569.37 2288.5 1574.62C2288.67 1576.88 2288.35 1579.17 2287.7 1579.22C2287.04 1579.27 2286.6 1577.79 2286.59 1575.53C2287 1570.2 2277.28 1570.2 2275.17 1574.9C2274.1 1578.01 2272.89 1577.34 2271.68 1574.41C2269.57 1568.53 2264.49 1566.65 2265.88 1571.84C2267.55 1578.51 2263.38 1575.81 2261.39 1569.16C2259.83 1563.99 2258.69 1564.08 2256.79 1567.25C2253.43 1572.8 2252.12 1572.9 2254.01 1567.46C2255.08 1564.35 2254.31 1562.9 2251.2 1563.14C2248.91 1563.32 2242.67 1561.53 2237.53 1558.91C2232.22 1556.29 2226.58 1553.71 2224.78 1553.85C2219.48 1553.5 2219.57 1537.61 2225.11 1519.79C2228.23 1508.97 2229.45 1501.31 2228.61 1496.84C2227.77 1492.37 2226.89 1491.68 2226.3 1494.75C2225.82 1497.06 2224.02 1497.2 2222.54 1495.04C2221.05 1492.89 2217.82 1491.63 2215.31 1491.06C2211.87 1491.33 2210 1488.45 2207.61 1478.81C2203.66 1463.99 2202.47 1455.01 2202.91 1443.63C2203.21 1439.07 2202.98 1436.07 2202.44 1437.62C2201.9 1439.17 2200.07 1432.51 2198.39 1423.57C2196.71 1414.62 2194.48 1404.97 2193.54 1403.53C2192.61 1402.09 2194.07 1399.71 2196.69 1399.5C2200.29 1399.22 2200.83 1397.67 2199.29 1394.77C2197.53 1391.12 2197.96 1390.33 2201.07 1390.09C2203.2 1389.93 2205.87 1388.21 2206.67 1385.88C2207.65 1383.53 2212.68 1374.07 2217.98 1363.83C2228.7 1344.85 2235.4 1339.8 2260.98 1334.04C2280.56 1329.5 2282.8 1328.57 2285.28 1322.33C2287.87 1315.32 2303.54 1305.04 2313.8 1303.49C2319.2 1303.07 2323.77 1298.18 2326.74 1291.9C2329.28 1286.41 2333.95 1280.75 2337.11 1279C2342.76 1273.27 2350.08 1261.36 2349.67 1256.1C2349.5 1253.84 2345.81 1248.84 2341.7 1244.62C2335.22 1237.56 2330.03 1236.45 2308.68 1237.34C2291.65 1238.66 2281.59 1236.42 2278.19 1232.9C2273.14 1227.24 2268.94 1228.32 2258.61 1237.44C2256 1239.91 2248.15 1242.78 2241.11 1243.33C2234.07 1243.87 2227.59 1247.4 2226.45 1249.76C2225.37 1252.86 2222.59 1253.08 2219.79 1251.03C2217.16 1248.96 2214.65 1248.4 2214.22 1249.19C2212.26 1251.61 2175.41 1252.2 2171.14 1250.26C2163.97 1247.03 2154.89 1244.71 2142.77 1243.38C2136.43 1242.36 2130.46 1239.8 2129.57 1236.84C2127.92 1232.43 2129.81 1229.26 2133.92 1231.21C2134.73 1231.15 2135.27 1229.59 2135.04 1226.59C2134.81 1223.58 2135.41 1222.78 2136.45 1223.45C2137.54 1224.88 2138.9 1223.26 2139.21 1218.7C2139.95 1213.35 2140.44 1213.32 2141.61 1217.76C2142.77 1222.21 2142.94 1222.2 2142.59 1217.69C2142.3 1213.93 2143 1212.36 2144.65 1214.5C2146.24 1215.89 2147.11 1214.31 2147.19 1209.01C2147.17 1204.48 2146.49 1199.99 2145.78 1199.29C2143.8 1197.18 2139.6 1185.4 2139.19 1180.14C2138.67 1173.38 2141.81 1156.5 2143.35 1159.41C2144.12 1160.86 2144.17 1159.34 2143.39 1155.62C2142.32 1150.41 2142.92 1149.61 2145.06 1151.71C2147.36 1153.8 2147.8 1153.01 2146.51 1147.06C2144.33 1135.89 2146.55 1132.69 2149.6 1142.29C2151.16 1147.46 2151.71 1148.17 2150.87 1143.7C2149.46 1136.25 2153.94 1123.8 2156.42 1128.15C2157.19 1129.6 2157.23 1128.09 2156.57 1125.87C2155.84 1122.9 2155.83 1120.63 2156.49 1120.58C2157.14 1120.53 2158.03 1123.49 2158.32 1127.25C2159.08 1137.02 2161.42 1135.32 2160.72 1126.3C2160.2 1119.54 2160.2 1119.54 2161.98 1127.72C2163.05 1132.93 2163.78 1138.16 2163.67 1138.93C2163.63 1140.45 2164.56 1141.88 2165.87 1141.78C2168.71 1142.32 2168.59 1138.55 2165.44 1131.99C2163.68 1128.34 2164.55 1126.76 2170.07 1127.85C2174.22 1128.28 2176.62 1127.34 2175.89 1124.37C2175.23 1122.16 2175.99 1121.34 2177.41 1122.74C2179 1124.13 2179.87 1122.55 2179.47 1119.56C2179.24 1116.55 2179.84 1115.75 2180.61 1117.2C2181.77 1119.38 2181.75 1117.11 2180.53 1111.92C2179.52 1107.46 2178.51 1100.73 2177.89 1097C2176.42 1086.53 2173.08 1083.76 2169.94 1090.05C2168.21 1093.21 2167.62 1096.28 2168.44 1096.22C2171.45 1096.74 2170.84 1105.86 2167.72 1106.1C2165.43 1106.28 2164.6 1104.08 2164.58 1099.54C2164.62 1095.76 2163.94 1091.27 2163.17 1089.82C2162.23 1088.38 2162.11 1084.61 2162.58 1080.04C2163.42 1073.92 2163.2 1073.18 2161.74 1075.57C2160.87 1077.14 2159.12 1075.77 2157.96 1073.59C2156.19 1069.95 2156.36 1069.93 2158.11 1071.31C2160.09 1073.42 2160.08 1071.16 2158.5 1061.45C2157.49 1054.72 2155.98 1048.03 2155.37 1046.57C2153.22 1042.2 2153.63 1024.02 2155.66 1026.89C2157.09 1028.29 2157.3 1026.76 2156.51 1020.77C2155.71 1014.79 2155.87 1012.51 2157.89 1013.1C2159.2 1013 2159.69 1012.97 2158.59 1011.54C2157.66 1010.1 2156.93 1007.13 2157.09 1004.85C2157.24 1002.57 2156.07 998.123 2154.31 994.479C2152.54 990.835 2151.6 987.128 2151.75 984.848C2152.12 983.307 2151.19 981.867 2149.88 981.968C2147.91 982.12 2147.86 981.369 2148.88 977.509C2149.79 974.414 2150.67 975.102 2151.61 978.81C2152.34 981.778 2153.21 982.466 2153.42 980.938C2153.85 977.88 2149.88 958.528 2147.95 954.897C2146.35 951.24 2142.92 930.335 2144.46 933.24C2145.23 934.692 2145.98 931.61 2146.45 927.037C2147.02 919.432 2146.79 918.693 2143.9 919.673C2141.78 919.837 2140.68 918.41 2140.39 914.652C2140.15 911.646 2139.82 909.404 2139.32 909.442C2136.98 911.135 2135.28 908.242 2134.65 902.242C2134.36 898.484 2133.47 895.528 2132.81 895.579C2132.16 895.63 2131.66 893.4 2131.81 891.12C2131.96 888.84 2131.4 885.859 2130.3 884.432C2129.21 883.004 2129.48 882.227 2130.56 881.387C2131.71 881.298 2132.52 878.967 2132.4 877.464C2132.23 875.209 2133.97 874.318 2136.26 874.141C2138.55 873.963 2140.13 873.085 2139.47 870.868C2138.97 868.639 2139.67 867.072 2140.98 866.971C2142.45 866.857 2142.93 864.551 2142.43 862.322C2141.77 860.105 2141.92 857.825 2142.74 857.761C2143.56 857.698 2143.49 854.679 2142.65 850.207C2141.53 844.245 2141.63 843.48 2143.51 848.628C2145.5 853.011 2145.83 852.985 2145.26 847.737C2144.97 843.979 2143.47 839.558 2141.94 838.92C2140.35 837.531 2139.02 833.097 2138.39 827.097C2137.75 818.829 2138.02 818.052 2141.14 820.079C2144.1 822.118 2144.2 821.354 2142.11 817.735C2139.8 813.378 2139.68 811.875 2141.16 801.175C2142 795.06 2143.56 789.647 2144.54 789.571C2148.15 789.292 2144.52 785.036 2139.43 783.161C2136.37 781.886 2134.69 783.529 2135.35 785.746C2136.02 787.962 2135.86 790.243 2135.21 790.293C2134.55 790.344 2133.62 788.904 2133.12 786.675C2132.61 784.445 2130.37 783.107 2128.3 784.023C2126.17 784.188 2123.66 783.626 2122.6 780.683C2121.61 778.492 2120.63 778.568 2120.48 780.848C2120.22 783.892 2119.23 783.968 2117.53 781.076C2116.04 778.923 2113.58 776.845 2112.1 776.959C2107.84 777.289 2092.76 773.92 2091.38 771.002C2090.44 769.562 2076.66 763.824 2072.67 763.377C2070.54 763.542 2068.85 741.745 2070.52 735.567C2071.27 732.484 2071.5 724.905 2070.92 717.389C2070.34 709.872 2070.64 705.312 2071.74 706.739C2072.68 708.179 2072.89 706.651 2072.27 702.918C2071.49 699.198 2072.18 695.364 2074.36 693.683C2078.05 690.372 2079.92 680.398 2078.19 672.971C2077.52 670.754 2078.29 669.939 2079.65 670.59C2081.57 671.953 2082.11 670.399 2081.54 665.151C2081.19 660.641 2081.82 656.055 2083.02 654.451C2085.46 651.993 2085.32 645.955 2082.85 641.61C2081.69 639.431 2081.58 640.195 2082.53 643.903C2083.25 646.871 2083.43 649.126 2082.88 648.412C2080.14 647.112 2079.01 649.468 2079.53 656.233C2080.29 666.004 2077.21 662.461 2075.74 651.989C2075.07 647.505 2075.16 644.473 2075.71 645.187C2079.16 647.188 2080.83 643.278 2080.03 635.023C2079.62 629.761 2078.74 626.806 2078.2 628.36C2077.66 629.914 2076.93 626.945 2076.36 621.696C2075.96 616.435 2074.79 611.989 2073.81 612.065C2072.82 612.141 2071.61 609.21 2070.83 605.49C2070.04 601.77 2070.03 599.503 2070.8 600.955C2071.58 602.408 2072.11 600.854 2072.21 597.822C2072.14 594.803 2072.36 595.542 2072.55 600.064C2072.9 604.574 2073.52 608.307 2074.01 608.269C2074.66 608.218 2074.81 605.938 2074.58 602.931C2074.35 599.925 2075.28 601.365 2076.67 606.55C2078.51 613.213 2078.9 616.207 2078.1 618.538C2077.39 620.104 2078 621.57 2079.42 620.704C2081.55 620.539 2082.03 607.648 2079.9 607.812C2079.41 607.851 2078.13 601.901 2077.05 594.423C2075.58 583.951 2074.53 581.008 2072.08 581.198C2070.44 581.325 2068.79 579.184 2068.62 576.929C2068.44 574.674 2067.12 572.508 2065.81 572.609C2063.19 572.812 2063.22 579.615 2065.7 583.96C2068.4 589.044 2066.84 594.457 2062.8 593.258C2057.77 592.135 2056.05 586.975 2060.41 585.881C2063.85 585.615 2063.85 585.615 2060.61 582.085L2057.27 579.319L2059.48 573.855C2061.96 567.614 2061.82 559.308 2059.03 559.524C2058.05 559.6 2057.73 561.893 2058.4 564.11C2059.06 566.327 2058.91 568.607 2058.26 568.657C2057.6 568.708 2056.6 564.249 2056.08 559.752C2055.68 554.491 2054.4 550.809 2053.26 550.897C2051.46 551.037 2051.4 550.285 2052.9 544.12C2054.29 538.719 2054.95 538.669 2055.85 543.892C2056.63 547.612 2057.67 548.288 2059.03 546.67C2060.92 543.499 2060.86 542.748 2058.21 536.148C2056.72 531.727 2054.68 528.86 2053.7 528.936C2052.23 529.05 2051 523.852 2050.41 514.068C2050.23 511.813 2049.3 510.373 2048.31 510.449C2047.33 510.525 2046.5 508.321 2046.66 506.041C2047.07 500.716 2044.37 495.633 2043.02 499.517C2042.38 501.836 2042.61 504.842 2044.1 509.263C2045.6 513.684 2045.77 515.939 2044.63 516.028C2043.15 516.142 2042.42 510.906 2041.42 495.861C2040.55 484.587 2038.01 479.49 2032.44 479.921C2029.82 480.124 2027.85 478.008 2027.78 474.989C2027.55 471.983 2024.92 469.918 2020.33 470.273C2016.4 470.577 2012.3 468.626 2011.14 466.448C2010.14 464.256 2007.79 463.682 2005.89 464.585C2003.55 466.279 2001.96 464.89 2000.4 459.717C1999.07 455.283 1998.79 453.793 1999.56 455.245C2000.39 457.449 2001.61 449.794 2002.6 439.132C2003.42 428.482 2004.37 421.604 2004.55 423.859C2004.72 426.114 2005.69 423.77 2006.55 419.923C2007.51 415.312 2008.03 409.223 2007.63 406.229C2007.4 403.223 2006.86 404.777 2006.72 409.325C2006.41 413.885 2005.39 417.745 2004.25 417.833C2002.77 417.947 2002.49 416.457 2003.18 412.622C2003.61 409.565 2003.53 404.279 2002.74 400.559C2001.68 395.348 2001.35 395.373 2001.11 400.685C2000.8 405.246 2000.41 404.52 1999.89 397.755C1999.02 386.481 2000.31 371.258 2001.97 375.667C2002.58 377.132 2002.68 376.368 2001.8 373.412C2001.07 370.443 1999.97 369.016 1999.6 370.557C1999.06 372.111 1998.45 370.646 1998.28 368.391C1998.1 366.136 1998.3 362.34 1998.68 360.799C1999.86 356.927 1997.34 343.512 1993.81 336.224C1992.27 333.319 1991.21 328.108 1991.36 325.828C1991.62 322.783 1990.74 322.095 1989.11 324.49C1987.05 327.673 1986.67 326.947 1987.41 321.597C1988.46 313.954 1987.42 300.425 1985.6 298.297C1984.34 296.882 1983.21 288.653 1982.14 270.589C1981.79 266.079 1982.65 262.232 1984.12 262.118C1985.6 262.004 1985.97 260.463 1984.98 258.271C1982.66 253.913 1980.25 239.734 1981.16 236.639C1981.54 235.098 1982.47 236.538 1983.03 239.519C1983.59 242.5 1984.36 243.952 1984.57 242.424C1984.79 240.895 1984.17 237.162 1983.38 233.442C1982 228.257 1981.5 228.295 1980.12 235.963C1978.47 244.409 1978.47 244.409 1977.5 236.166C1977.15 231.657 1976.54 230.191 1976.45 233.223C1976.35 236.255 1975.77 239.325 1975.11 239.375C1974.46 239.426 1973.9 236.445 1973.93 232.662C1973.97 228.878 1973.57 225.884 1973.14 226.674C1972.65 226.712 1970.57 225.361 1968.53 222.494C1966.5 219.627 1964.26 218.288 1963.72 219.842C1963.18 221.396 1962.57 219.931 1962.4 217.676C1962.16 214.67 1961.61 213.956 1961.08 215.51C1960.54 217.064 1959.6 215.624 1959.16 214.146C1958.49 211.929 1957.17 209.763 1956.02 209.852C1952.75 210.105 1950.45 208.015 1944.01 197.172C1940.59 191.387 1937.13 187.118 1936.31 187.182C1935.33 187.258 1934.17 185.079 1933.61 182.098C1932.49 176.136 1921.13 173.991 1921.59 180.004C1921.71 181.507 1920.23 181.621 1918.32 180.257C1914.42 176.778 1906.78 178.125 1901.73 183.053C1899.12 185.524 1898.02 184.096 1895.85 175.191C1894.4 169.254 1893.39 162.528 1893.48 159.496C1894 153.407 1901.67 148.276 1914.88 146.498C1921.1 146.016 1927.26 142.516 1928.33 139.408C1929.57 136.287 1930.87 133.918 1931.59 134.619C1932.3 135.32 1934.53 134.391 1936.83 134.214C1940.1 133.96 1941.02 130.865 1940.98 124.062C1940.73 116.521 1940.29 115.043 1937.5 115.258C1934.39 115.499 1934.39 115.499 1936 108.57C1937.5 102.405 1936.45 101.729 1926.69 103.241C1920.63 103.71 1915.89 106.345 1916.01 107.849C1916.12 109.352 1914.71 110.218 1912.85 109.605C1904.37 106.481 1891.57 102.935 1886.99 103.289C1884.21 103.505 1882.07 101.402 1882.28 99.8736C1882.43 97.5934 1881.5 96.1534 1880.29 95.4905C1875.43 94.3548 1874.22 93.6921 1871.8 90.0987C1870.48 87.9326 1867.49 79.0906 1865.42 69.4209C1861.47 52.3366 1856.72 42.1181 1856.76 51.1882C1856.73 54.9718 1856.01 54.2708 1854.47 51.3657C1853.03 47.6963 1852.05 47.7724 1851.74 50.0653C1851.27 54.6383 1831.94 56.1339 1830.28 51.7256C1829.68 50.2603 1828.91 51.0753 1828.27 53.3935C1827.15 58.0173 1819.88 57.8233 1817.18 52.7395C1816.25 51.2996 1813.96 51.4771 1811.9 54.6609C1809.78 57.0932 1798.22 61.0124 1786.16 62.7018C1774.1 64.3914 1757.24 67.9642 1748.62 69.3876C1702.91 78.9746 1688.72 80.8289 1659.78 81.5562C1637.13 82.5537 1628.18 84.0023 1628.63 87.7476C1628.92 91.5057 1628.6 91.5311 1627 87.8744C1624.95 82.7399 1617.63 81.7944 1596.73 84.1683C1590.5 84.6499 1584.77 85.0935 1584.12 85.1442C1583.46 85.1949 1576.74 83.4469 1569.14 81.0107C1561.59 79.3262 1554.6 78.3553 1553.73 79.9347C1552.7 81.5266 1551.44 80.112 1551 78.6341C1550.49 76.4046 1545.41 74.53 1539.94 74.1967C1534.38 74.6276 1526.61 72.204 1522.45 69.5018C1518.51 67.5384 1508.06 64.5662 1499.65 64.4609C1491.02 63.6168 1480.26 62.9375 1475.4 61.8017C1470.75 61.4051 1465.9 62.5368 1464.93 64.8804C1463.96 67.224 1463.14 67.2873 1463.29 65.0071C1463.44 62.7269 1458.58 61.5913 1452.03 62.0982C1445.64 62.5925 1438.26 60.8953 1435.74 58.0664C1432.11 53.8102 1430.97 53.8989 1430.66 58.4593C1430.46 62.2554 1430.13 62.2807 1429.84 58.5227C1429.61 55.5161 1425.99 53.5273 1420.53 53.194C1408.46 52.6159 1371.99 53.9264 1364.74 55.9999C1361.46 56.2534 1353.93 56.8363 1347.7 55.0504C1333 52.4075 1310.55 51.8767 1310.78 54.8831C1311.08 58.6411 1305.17 56.8297 1295.04 51.5647C1289.9 48.9383 1284.38 47.8532 1282.69 49.496C1278.89 53.5709 1270.98 55.6952 1270.53 51.9499C1270.41 50.4465 1268.82 49.0573 1267.02 49.1967C1233.45 51.7949 1168.93 46.2029 1166.46 41.8579C1165.85 40.3926 1165.47 41.9337 1165.75 43.4244C1165.93 45.6791 1164.35 46.5577 1162.33 45.9582C1160.24 44.6069 1157.74 46.313 1156.71 47.9048C1154.44 52.6173 1149.75 53.7365 1149.95 49.9405C1150 48.4247 1140.93 48.3699 1129.47 49.2571C1118.17 50.1316 1108.89 51.6057 1108.95 52.3573C1108.95 52.3573 1105.57 53.3751 1101.54 54.4436C1097.44 54.7605 1094 55.0267 1093.83 52.7717C1093.71 51.2686 1091.75 51.4207 1089.57 53.1012C1087.45 55.5336 1085.32 55.6984 1084.82 53.4687C1084.38 51.991 1079.18 50.8806 1073.13 51.3495C1066.58 51.8565 1062.04 50.6954 1061.81 47.689C1061.57 44.6824 1061.14 45.4721 1060.99 47.7524C1060.47 53.8412 1051.24 53.7995 1049.52 48.6396C1048.64 45.6836 1048.31 45.709 1048.54 48.7156C1048.72 50.9703 1046.92 53.3772 1044.41 52.8158C1041.95 53.006 1038.8 54.7625 1037.44 56.3799C1035.97 58.7616 1034.01 58.9137 1032.36 56.7728C1029.88 52.4278 1024.69 51.3177 998.188 47.3198C991.358 46.3361 980.317 44.1662 973.593 42.4185C966.868 40.6705 951.628 39.5817 940.107 39.7173C928.48 40.6171 916.679 39.262 913.885 37.2101C911.09 35.1579 896.177 34.0438 880.89 34.4708C845.075 35.7305 817.706 33.312 806.655 28.8744C801.731 26.9873 791.172 22.5117 783.348 19.3366C775.361 16.1743 762.122 11.1501 753.865 8.76447C745.609 6.37911 736.311 3.3179 733.247 2.04272C723.073 -1.70654 713.142 -0.181535 705.689 5.68819C700.904 9.83913 685.627 12.5336 663.134 13.5183C643.811 15.0138 627.599 16.2688 627.33 17.0458C626.897 17.8352 606.766 21.6618 582.424 24.3019C558.141 27.6934 533.858 31.0851 528.676 32.2421C499.501 40.5492 477.183 43.7888 427.613 46.1131C420.735 46.6454 413.039 47.2411 410.804 48.1701C406.008 50.0534 383.209 55.5988 361.604 59.5394C315.014 68.438 297.772 71.2848 266.062 74.4949C246.902 75.9778 229.555 79.5892 227.379 81.2697C225.202 82.9504 219.096 84.9351 213.914 86.0923C204.205 88.3561 193.419 93.7276 192.4 97.5871C191.966 98.3768 188.211 100.936 183.684 102.042C179.379 103.888 172.512 106.687 168.814 109.998C165.059 112.557 160.379 115.944 158.472 116.848C156.565 117.751 151.077 123.469 146.08 129.148C141.084 134.828 136.029 139.756 134.66 139.106C133.35 139.207 132.32 140.799 132.495 143.054C132.67 145.309 132.131 146.862 131.312 146.926C123.125 147.56 104.325 155.82 101.668 159.806C99.7138 162.226 97.5698 170.709 96.8415 178.326C95.3848 193.561 89.4487 208.387 83.1893 212.652C75.245 218.56 61.3471 224.172 58.1194 222.91C56.482 223.037 55.0663 223.902 55.4628 226.896C55.6955 229.903 55.4261 230.68 54.7603 228.463C54.1528 226.998 52.8537 229.366 51.9508 234.729C51.048 240.092 47.277 250.969 43.5537 260.331C38.1562 273.603 35.3356 277.602 28.5161 278.886C19.6259 281.086 18.3373 285.722 20.9853 302.908C22.5129 314.132 28.2873 322.758 33.5857 323.104C35.0596 322.99 36.8718 325.118 37.5375 327.335C38.2032 329.552 40.5066 331.642 42.7991 331.464C49.1855 330.97 59.9309 339.968 60.3963 345.981C61.1525 355.752 53.2406 368.462 44.3504 370.663C39.496 371.794 28.5352 374.911 19.5868 376.36C1.80649 380.76 0.0631575 381.651 0.000553024 391.486C-0.0403973 405.855 20.8186 451.876 36.3668 471.844C41.3117 478.267 44.1282 484.854 46.6382 496.001C50.8764 514.576 50.5916 523.672 44.8299 540.752C42.5114 546.981 41.0224 555.413 41.3133 559.171C41.6041 562.929 41.4147 568.993 40.7232 572.827C38.9175 583.552 40.6087 594.763 45.4007 603.466C47.8786 607.811 52.9034 619.52 56.6653 629.814C62.472 645.243 64.5062 648.111 69.5351 649.234C74.0728 650.395 76.4342 653.236 78.4897 660.638C80.0432 665.811 81.3853 672.512 81.1743 674.041C81.0214 676.321 81.4654 677.799 82.1204 677.748C82.7754 677.697 84.4345 682.106 85.7187 688.055C87.0029 694.005 87.5628 696.986 86.8971 694.769C85.238 690.361 83.174 704.131 84.5636 709.316C85.2875 712.285 84.8543 713.074 83.2641 711.685C82.0015 710.27 83.3804 713.188 86.5715 718.234C89.7626 723.28 93.9836 726.734 96.1125 726.569C98.2414 726.404 101.527 728.418 103.503 730.534C106.028 733.363 106.847 733.299 106.556 729.541C106.323 726.535 106.873 727.248 108.041 731.695C111.66 746.537 110.917 762.473 105.894 774.203C103.248 780.457 100.893 790.469 100.376 796.558C99.859 802.647 97.6569 810.379 95.2113 812.836C86.528 824.094 87.2433 848.234 96.4566 856.595C102.162 862.202 106.051 876.267 105.963 892.153C105.948 900.471 106.238 904.229 107.057 904.166C109.35 903.988 112.515 915.085 113.388 926.36C114.26 937.634 114.26 937.634 125.275 945.855C127.029 947.231 130.664 953.755 133.316 960.355C135.969 966.955 139.72 974.982 141.975 978.588C144.068 982.206 146.171 988.092 146.462 991.85C147.101 1000.12 152.385 1008.78 157.8 1010.63C163.705 1012.44 166.463 1018.28 167.885 1030.27C168.969 1040.01 166.235 1062.15 163.778 1062.34C162.304 1062.46 157.954 1089.26 158.362 1094.52C158.943 1102.03 163.994 1107.69 172.52 1109.3C177.221 1110.45 184.062 1113.7 187.512 1115.7C193.428 1119.78 214.068 1131.04 218.828 1132.94C220.687 1133.55 223.113 1150 221.312 1150.14C220.821 1150.17 221.276 1153.92 222.28 1158.38C223.284 1162.84 224.018 1168.07 223.702 1170.37C222.693 1176.49 228.646 1234.25 230.807 1240.89C232.081 1244.57 235.425 1247.34 238.594 1247.85C243.623 1248.97 247.586 1255.47 247.021 1263.08C246.974 1264.59 247.92 1268.3 249.135 1271.23C250.35 1274.16 251.285 1275.6 250.947 1273.36C250.831 1271.85 251.544 1272.55 252.595 1275.5C254.032 1279.17 254.851 1279.1 255.543 1275.27C256.398 1271.42 257.708 1271.32 260.841 1275.62C267.82 1284.91 267.066 1298.57 259.285 1304.47C250.58 1311.19 248.848 1314.35 250.729 1319.5C251.173 1320.98 260.026 1322.56 270.074 1322.54C291.7 1323.13 294.447 1326.7 299.299 1359.59C300.769 1370.06 304.236 1387.19 306.571 1396.08C310.577 1411.65 314.44 1431.76 315.64 1443.01C315.815 1445.27 318.012 1448.12 320.363 1448.7C323.205 1449.23 324.97 1452.88 325.926 1458.85C326.603 1463.34 327.654 1466.28 328.193 1464.73C328.732 1463.17 329.176 1464.65 329.514 1466.89C329.688 1469.15 332.89 1476.46 336.525 1482.98C346.822 1501.09 349.354 1516.77 343.829 1526.27C341.231 1531.01 341.463 1534.02 345.269 1553.38C348.011 1567.54 344.943 1576.85 333.101 1589.86C321.528 1602.1 318.893 1610.62 323.193 1619.36C325.951 1625.2 341.698 1617.93 366.197 1602.42C377.3 1594.76 382.503 1598.14 386.625 1615.21C390.747 1632.28 393.88 1636.57 402.137 1638.96C409.025 1640.69 416.237 1652.99 417.273 1664.25C417.796 1671.02 413.243 1678.17 407.079 1679.41C402.494 1679.76 398.021 1692.21 401.095 1695.75C402.03 1697.19 403.959 1700.82 405.232 1704.5C406.506 1708.18 407.441 1709.62 407.325 1708.12C406.917 1702.86 415.788 1719.56 417.96 1728.47C420.797 1739.59 428.348 1754.13 430.968 1753.93C437.074 1751.94 445.553 1755.07 446.007 1758.81C446.531 1765.58 442.206 1786.33 440.663 1783.42C439.892 1781.97 439.845 1783.48 440.51 1785.7C441.234 1788.67 441.303 1791.69 440.765 1793.24C440.226 1794.8 440.353 1798.57 441.019 1800.78C441.685 1803 441.601 1808.3 441.236 1812.11C439.922 1822.8 442.4 1827.14 451.908 1828.67C456.61 1829.82 463.229 1832.33 466.351 1834.36C469.473 1836.39 480.15 1842.37 489.949 1847.66C499.69 1852.2 511.033 1860.39 515.148 1864.61C519.322 1869.58 525.999 1872.84 530.093 1872.53C534.187 1872.21 541.905 1876.15 547.061 1881.04C556.11 1889.42 558.894 1889.2 598.57 1884.62C621.602 1882.08 645.066 1878.75 650.576 1877.57C664.975 1874.18 682.582 1867.53 684.921 1865.84C686.009 1865 699.918 1861.65 715.908 1859.66C738.659 1855.63 748.437 1856.38 761.839 1861.39C771.136 1864.46 788.083 1868.44 799.335 1869.08C810.586 1869.72 821.896 1871.11 824.469 1872.43C833.111 1875.54 862.408 1881.59 879.45 1882.54C888.9 1883.32 905.894 1885.78 917.368 1887.16C928.841 1888.54 951.894 1890.54 968.608 1891.51C985.264 1891.74 1000.67 1892.81 1002.75 1894.17C1004.77 1894.76 1018.54 1895.97 1033.45 1897.08C1048.2 1898.21 1061.97 1899.41 1063.99 1900.01C1067.87 1901.22 1077.11 1903.53 1110.17 1909.29C1136.08 1914.09 1155.6 1919.39 1171.96 1926.44C1179.13 1929.66 1187.06 1932.07 1189.51 1931.88C1191.97 1931.69 1195.91 1933.66 1198.05 1935.76C1200.19 1937.86 1205.5 1940.47 1209.71 1941.66C1214.08 1942.83 1223.17 1947.42 1230.13 1952.18C1237.08 1956.93 1246.01 1961.54 1250.05 1962.73C1254.1 1963.93 1261.7 1966.37 1267.01 1968.98C1272.26 1970.85 1279.76 1974.05 1283.91 1974.48C1287.96 1975.68 1297.48 1979.48 1305.14 1982.67C1312.63 1985.87 1323.3 1989.58 1328.88 1991.42C1334.45 1993.25 1342.16 1994.92 1346.27 1996.87C1350.21 1998.84 1360.15 1999.58 1368.39 1999.7C1376.64 1999.82 1387.46 2001.25 1392.71 2003.11C1402.88 2006.86 1424.25 2010.5 1440.52 2009.99C1446.09 2009.56 1453.47 2011.26 1456.59 2013.29C1459.71 2015.31 1480.58 2016.72 1503.03 2017.26C1525.25 2017.05 1544.8 2018.56 1546.34 2019.2C1547.87 2019.83 1559.73 2021.94 1572.62 2022.45C1585.56 2023.72 1599 2024.95 1602.34 2025.45C1605.67 2025.95 1618.13 2027.25 1629.87 2027.85C1641.61 2028.46 1655.93 2030.37 1661.67 2032.2C1667.35 2033.27 1672.71 2034.37 1673.31 2033.56C1673.96 2033.51 1682.43 2034.37 1692.27 2035.88C1702.16 2038.14 1715.72 2040.87 1722.55 2041.85C1729.38 2042.84 1736.76 2044.53 1739.27 2045.09C1741.78 2045.66 1751.19 2047.95 1760.15 2048.77C1769.11 2049.59 1776.98 2051.25 1777.36 2051.98C1777.75 2052.7 1784.96 2054.41 1793.43 2055.27C1801.9 2056.13 1809.93 2057.77 1811.36 2059.17C1813.99 2061.24 1899.89 2062.15 1936.85 2060.8C1947.82 2059.95 1965.84 2058.56 1976.96 2055.43L1977.64 2059.91ZM2173.87 1481.42C2173.87 1481.42 2173.52 1476.91 2174.1 1471.57C2175.26 1463.16 2176.68 1462.3 2184 1463.24C2188.64 1463.64 2192.97 1466.33 2193.31 1468.57C2194.48 1475.29 2186.88 1483.44 2180.38 1482.43C2177.37 1481.9 2174.36 1481.38 2173.71 1481.43L2173.87 1481.42ZM2122.46 1234.37C2122.46 1234.37 2122.78 1232.07 2123.44 1232.02C2124.09 1231.97 2124.92 1234.18 2125.09 1236.43C2125.33 1239.44 2124.89 1240.23 2124.12 1238.77C2123.35 1237.32 2122.52 1235.12 2122.46 1234.37ZM2171.27 1094.49C2171.27 1094.49 2171.86 1091.42 2172.72 1089.84C2173.59 1088.26 2174.14 1088.97 2173.99 1091.25C2173.68 1095.81 2171.51 1097.49 2171.27 1094.49ZM2144.43 949.877C2145.23 945.278 2145.45 946.017 2145.26 952.081C2145.28 956.616 2144.8 958.921 2144.19 957.456C2143.75 955.978 2143.79 952.195 2144.21 949.138L2144.43 949.877ZM2129.87 895.807C2130.66 891.209 2130.89 891.948 2130.7 898.011C2130.72 902.546 2130.24 904.852 2129.63 903.387C2129.19 901.909 2129.22 898.125 2129.65 895.068L2129.87 895.807ZM2136.57 869.581C2136.57 869.581 2137.2 864.995 2137.37 864.982C2137.69 864.957 2138.03 867.199 2138.37 869.441C2138.54 871.696 2138.23 873.989 2137.57 874.039C2136.92 874.09 2136.42 871.861 2136.57 869.581ZM2068.71 654.802C2069.41 653.235 2070.62 653.898 2071 654.624C2071.61 656.089 2070.85 656.905 2069.71 656.993C2068.23 657.107 2067.95 655.617 2068.65 654.05L2068.71 654.802ZM2067.78 642.776C2069.12 636.624 2070.4 619.134 2069.99 613.872C2069.88 612.369 2069.17 613.936 2068.42 617.018C2066.71 624.712 2064.83 619.564 2065.94 610.406C2066.93 602.011 2070.57 608.535 2071.6 619.797C2071.89 623.555 2072.5 625.02 2072.94 624.23C2073.31 622.689 2074.03 625.657 2074.61 630.906C2075.23 636.906 2074.81 639.963 2073.34 640.078C2072.03 640.179 2071.22 642.51 2071.39 644.765C2071.57 647.019 2070.6 649.363 2069.12 649.477C2066.83 649.654 2066.61 648.915 2067.68 643.54L2067.78 642.776ZM2074.23 632.447C2074.23 632.447 2073.34 629.491 2072.57 628.039C2071.8 626.586 2071.43 628.128 2071.6 630.382C2071.83 633.389 2072.6 634.841 2073.26 634.791C2073.91 634.74 2074.35 633.95 2074.23 632.447ZM2044.08 538.754C2043.62 532.741 2043.5 531.237 2044.06 534.219C2044.62 537.2 2045.55 538.639 2045.93 537.098C2046.47 535.544 2046.75 537.035 2046.77 541.57C2046.77 552.156 2045.28 550.002 2044.08 538.754ZM2050.01 534.514C2047.9 526.36 2049.26 524.743 2051.64 532.12C2052.97 536.553 2053.31 538.795 2052.49 538.859C2051.84 538.91 2050.68 536.731 2049.95 533.762L2050.01 534.514ZM1996.42 380.633C1996.42 380.633 1997.01 377.563 1997.88 375.983C1998.74 374.404 1999.68 375.844 1999.79 377.347C1999.97 379.602 1999.32 381.92 1998.34 381.996C1997.36 382.072 1996.48 381.384 1996.42 380.633ZM2303.72 1584.03C2303.72 1584.03 2302.66 1578.82 2301.83 1576.62C2301.06 1575.16 2300.68 1576.7 2301.03 1581.21C2301.32 1584.97 2302.21 1587.93 2302.92 1588.63C2303.58 1588.58 2303.89 1586.28 2303.72 1584.03ZM2219.94 1212.45C2219.94 1212.45 2217.68 1208.85 2216.76 1209.68C2216 1210.49 2216.66 1212.71 2218.42 1214.08C2220.56 1216.19 2220.99 1215.4 2219.72 1211.72L2219.94 1212.45ZM2202.91 1213.77C2203.82 1210.68 2203.87 1209.16 2202.67 1208.5C2199.93 1207.2 2199.22 1206.5 2197.51 1203.61C2196.52 1201.41 2195.65 1202.99 2195.33 1205.29C2195.07 1208.33 2195.3 1209.07 2196 1207.5C2196.64 1205.18 2197.31 1207.4 2197.76 1211.15C2198.4 1219.41 2200.75 1219.99 2202.91 1213.77ZM2208.21 1203.53C2206.94 1199.85 2206.12 1199.91 2205.53 1202.98C2204.95 1206.05 2205.72 1207.51 2207.41 1208.13C2209.38 1207.98 2209.71 1207.95 2208.21 1203.53ZM2171.47 1135.3C2171.18 1131.54 2170.35 1129.34 2169.81 1130.89C2169.27 1132.45 2169.01 1135.49 2169.18 1137.75C2169.36 1140 2170.19 1142.21 2170.84 1142.15C2171.5 1142.1 2171.76 1139.06 2171.47 1135.3ZM2163.08 1058.83C2159.84 1044.71 2159.46 1043.98 2160.82 1055.22C2161.39 1060.47 2162.62 1065.67 2163.72 1067.09C2165.14 1068.5 2165.03 1066.99 2163.13 1059.58L2163.08 1058.83ZM2140.44 891.964C2141.25 889.633 2140.42 887.429 2138.12 885.339C2133.73 881.898 2133.25 884.203 2136.72 890.74C2138.27 893.645 2139.96 894.27 2140.61 891.951L2140.44 891.964ZM2087.71 585.28C2087.71 585.28 2086.12 583.891 2085.42 585.458C2084.55 587.037 2084.94 587.764 2086.47 588.401C2087.78 588.3 2088.38 587.497 2087.77 586.032L2087.71 585.28ZM2082.33 566.794C2082.33 566.794 2080.74 565.405 2080.04 566.972C2079.17 568.551 2079.55 569.277 2081.09 569.915C2082.4 569.813 2082.99 569.011 2082.39 567.546L2082.33 566.794ZM2055.52 509.892C2055.17 505.382 2054.61 502.401 2054.4 503.93C2054.19 505.458 2054.48 509.216 2055.1 512.949C2055.88 516.669 2055.93 515.153 2055.52 509.892ZM1989.95 258.643C1990.7 255.56 1990.75 254.044 1989.93 254.107C1989.11 254.171 1988.3 256.502 1988.15 258.782C1987.79 264.858 1988.12 264.833 1989.95 258.643Z" fill="#51302B"/>
</svg>