<svg viewBox="0 0 38 47" fill="none" xmlns="http://www.w3.org/2000/svg">
<path d="M23.75 0.599609C24.8525 0.599612 25.9088 1.0333 26.6865 1.80273C27.4641 2.57214 27.9004 3.61485 27.9004 4.7002L27.9072 5.03027C27.9801 6.67633 28.5875 8.25801 29.6426 9.53809C30.768 10.9033 32.3339 11.8423 34.0752 12.1973H34.0771C35.1573 12.4143 36.1041 13.0469 36.7109 13.9531C37.3176 14.8593 37.5357 15.9665 37.3174 17.0303C37.099 18.0941 36.4616 19.0304 35.5439 19.6318C34.6263 20.2332 33.5039 20.4502 32.4238 20.2334C31.1559 19.9773 29.9237 19.5696 28.7549 19.0205L27.9004 18.6191V32.9004C27.9003 35.4241 27.184 37.8976 25.834 40.04C24.484 42.1824 22.5536 43.9083 20.2607 45.0205C17.9677 46.1328 15.4044 46.5866 12.8633 46.3301C10.3224 46.0735 7.90568 45.1173 5.8877 43.5703C3.86969 42.0233 2.331 39.9475 1.44629 37.5801C0.56162 35.2126 0.365796 32.6467 0.880859 30.1748C1.39593 27.703 2.60153 25.4229 4.36133 23.5938C6.01119 21.8789 8.08629 20.6244 10.377 19.9541L10.8379 19.8281C11.8961 19.578 13.0115 19.7488 13.9434 20.3027C14.8774 20.858 15.5512 21.7534 15.8223 22.7939C16.0933 23.8345 15.9407 24.9396 15.3955 25.8701C14.8843 26.7426 14.0657 27.3971 13.0986 27.7109L12.9033 27.7695C11.6526 28.0991 10.5633 28.8666 9.83887 29.9316C9.11355 30.9981 8.80359 32.2898 8.96777 33.5664C9.13199 34.843 9.75921 36.0163 10.7305 36.8682C11.7015 37.7196 12.9508 38.1922 14.2461 38.2002H14.25C15.6669 38.2002 17.0275 37.6436 18.0312 36.6504C19.0351 35.657 19.5996 34.308 19.5996 32.9004V4.7002C19.5996 3.61485 20.0359 2.57215 20.8135 1.80273C21.5912 1.0333 22.6475 0.599609 23.75 0.599609Z" stroke="#5A3E36" stroke-width="1.2"/>
</svg>