<svg width="509" height="509" viewBox="0 0 509 509" fill="none" xmlns="http://www.w3.org/2000/svg">
<path d="M428.801 268.625C422.279 257.968 412.799 249.696 400.583 244.034C390.594 239.389 379.078 236.622 366.003 235.763C363.935 235.604 361.708 235.413 359.481 235.604C358.463 235.444 357.254 235.444 356.205 235.444H319.207C317.998 239.071 316.98 242.666 316.28 245.752C315.071 251.096 314.403 255.741 314.403 259.845C314.403 264.839 315.421 266.048 315.421 266.048C316.121 265.889 318.698 265.539 324.201 261.403C326.428 259.527 330.914 254.882 336.258 249.347V245.72H352.101C353.819 245.72 355.537 245.879 357.095 246.07C363.808 246.77 369.47 249.156 374.306 253.132C380.509 258.127 385.154 265.189 388.399 274.478C391.676 283.609 393.203 294.775 393.203 307.691C393.203 320.607 391.644 331.614 388.399 340.903C385.122 350.192 380.478 357.255 374.306 362.058C368.293 367.053 360.881 369.63 352.101 369.63H303.587L303.937 379.937H356.236C373.447 379.937 388.24 377.01 400.615 371.348C412.831 365.685 422.279 357.414 428.833 346.566C435.386 335.717 438.631 322.833 438.631 307.691C438.631 292.548 435.354 279.473 428.833 268.625H428.801ZM304.923 235.413C304.223 237.64 303.555 240.407 302.696 243.334C302.537 244.193 302.346 244.893 302.187 245.752H310.967C311.667 242.475 312.685 239.039 313.894 235.444H304.955L304.923 235.413ZM327.287 265.348C322.483 269.134 318.507 271.011 315.421 271.011C311.285 271.011 309.218 267.384 309.218 259.845C309.218 255.709 309.727 250.905 310.935 245.752H302.155C301.137 250.396 300.596 255.041 300.596 259.686C300.596 270.534 304.382 276.037 311.953 276.037C314.18 276.037 316.439 275.687 318.666 274.828C323.311 273.46 329.164 268.975 336.226 261.403V256.6C332.441 260.545 329.164 263.821 327.287 265.38V265.348ZM327.287 265.348C322.483 269.134 318.507 271.011 315.421 271.011C311.285 271.011 309.218 267.384 309.218 259.845C309.218 255.709 309.727 250.905 310.935 245.752H302.155C301.137 250.396 300.596 255.041 300.596 259.686C300.596 270.534 304.382 276.037 311.953 276.037C314.18 276.037 316.439 275.687 318.666 274.828C323.311 273.46 329.164 268.975 336.226 261.403V256.6C332.441 260.545 329.164 263.821 327.287 265.38V265.348ZM327.287 265.348C322.483 269.134 318.507 271.011 315.421 271.011C311.285 271.011 309.218 267.384 309.218 259.845C309.218 255.709 309.727 250.905 310.935 245.752H302.155C301.137 250.396 300.596 255.041 300.596 259.686C300.596 270.534 304.382 276.037 311.953 276.037C314.18 276.037 316.439 275.687 318.666 274.828C323.311 273.46 329.164 268.975 336.226 261.403V256.6C332.441 260.545 329.164 263.821 327.287 265.38V265.348ZM320.257 279.823C317.489 280.841 314.753 281.191 311.985 281.191C305.782 281.191 295.475 278.264 295.475 259.686C295.475 253.673 296.334 247.82 297.701 242.125C298.401 239.548 298.91 237.321 299.419 235.413H293.916V379.905H336.226V268.784C330.023 274.797 324.71 278.423 320.225 279.791L320.257 279.823ZM327.287 265.348C322.483 269.134 318.507 271.011 315.421 271.011C311.285 271.011 309.218 267.384 309.218 259.845C309.218 255.709 309.727 250.905 310.935 245.752H302.155C301.137 250.396 300.596 255.041 300.596 259.686C300.596 270.534 304.382 276.037 311.953 276.037C314.18 276.037 316.439 275.687 318.666 274.828C323.311 273.46 329.164 268.975 336.226 261.403V256.6C332.441 260.545 329.164 263.821 327.287 265.38V265.348ZM327.287 265.348C322.483 269.134 318.507 271.011 315.421 271.011C311.285 271.011 309.218 267.384 309.218 259.845C309.218 255.709 309.727 250.905 310.935 245.752H302.155C301.137 250.396 300.596 255.041 300.596 259.686C300.596 270.534 304.382 276.037 311.953 276.037C314.18 276.037 316.439 275.687 318.666 274.828C323.311 273.46 329.164 268.975 336.226 261.403V256.6C332.441 260.545 329.164 263.821 327.287 265.38V265.348ZM327.287 265.348C322.483 269.134 318.507 271.011 315.421 271.011C311.285 271.011 309.218 267.384 309.218 259.845C309.218 255.709 309.727 250.905 310.935 245.752C311.635 242.475 312.653 239.039 313.862 235.444H304.923C304.223 237.671 303.555 240.439 302.696 243.366C302.537 244.225 302.346 244.925 302.187 245.784C301.169 250.428 300.628 255.073 300.628 259.717C300.628 270.565 304.414 276.069 311.985 276.069C314.212 276.069 316.471 275.719 318.698 274.86C323.342 273.492 329.196 269.007 336.258 261.435V256.632C332.473 260.576 329.196 263.853 327.319 265.412L327.287 265.348ZM319.207 235.413C317.998 239.039 316.98 242.634 316.28 245.72C315.071 251.064 314.403 255.709 314.403 259.813C314.403 264.807 315.421 266.016 315.421 266.016C316.121 265.857 318.698 265.507 324.201 261.372C326.428 259.495 330.914 254.85 336.258 249.315V235.381H319.239L319.207 235.413ZM293.916 364.794C293.757 368.421 292.357 371.507 289.971 374.083C287.394 376.501 284.308 377.869 280.682 377.869H278.105V379.937H294.616V364.794H293.916ZM278.105 235.413L278.264 237.48H281.032C284.467 237.48 287.553 238.689 289.971 241.266C292.548 243.843 293.916 246.929 293.916 250.396H294.616V235.444H278.105V235.413Z" fill="#AE3232"/>
<path d="M120.861 209.899C109.949 209.899 100.787 205.796 93.661 197.715C86.535 189.667 82.9402 179.391 82.9402 167.143C82.9402 151.014 88.5392 137.462 99.5781 126.901C106.545 120.156 115.198 115.512 125.314 113.062C128.496 112.458 131.232 112.171 133.808 112.171C139.757 112.171 144.211 113.635 147.042 116.498C149.937 119.488 150.319 120.538 149.969 121.365C149.874 121.62 149.524 122.161 148.601 122.161H148.378L145.42 120.697C143.225 119.87 141.252 119.425 139.566 119.425C137.88 119.425 136.417 119.584 135.272 119.902C121.783 123.051 110.744 131.227 102.441 144.27C96.0469 154.387 92.802 164.694 92.802 174.906C92.802 188.935 97.733 197.779 107.849 201.883C111.19 203.314 114.88 204.046 118.761 204.046C122.642 204.046 126.841 203.537 131.009 202.519C138.485 200.833 146.215 196.093 153.946 188.394C161.74 180.664 168.198 171.406 173.192 160.876C178.155 150.41 180.668 140.453 180.668 131.354C180.668 119.552 177.137 110.644 170.17 104.918C164.317 100.274 156.459 97.9194 146.851 97.9194C145.388 97.9194 143.797 97.983 142.111 98.0784C129.609 98.8737 117.934 103.137 107.34 110.803C99.5463 116.243 92.8975 123.051 87.6166 131.036C82.3357 139.021 79.3772 147.006 78.8364 154.832C78.7091 156.613 78.1365 157.504 77.1185 157.504C76.6095 157.504 76.1005 157.25 75.5915 156.709C74.4462 155.564 73.8418 153.846 73.8418 151.651C73.8418 143.252 76.355 134.917 81.2859 126.805C86.2169 118.757 92.8657 111.694 101.073 105.809C106.927 101.61 113.639 98.2375 121.02 95.7879C128.464 93.3066 135.717 91.9704 142.557 91.875C156.841 91.875 168.643 95.8197 177.614 103.646C186.617 111.503 191.198 122.51 191.198 136.381C191.198 153.623 185.154 169.275 173.256 182.859C161.358 196.411 147.933 205 133.363 208.372C129.068 209.422 124.869 209.931 120.924 209.931L120.861 209.899Z" fill="#AE3232"/>
<path d="M190.18 136.348C190.18 153.431 184.263 168.733 172.46 182.19C160.626 195.678 147.519 204.077 133.076 207.386C128.845 208.404 124.773 208.944 120.86 208.944C110.203 208.944 101.359 205 94.3607 197.078C87.3619 189.157 83.8625 179.2 83.8625 167.143C83.8625 151.205 89.3025 138.002 100.214 127.568C107.086 120.919 115.516 116.37 125.505 113.984C128.495 113.411 131.231 113.125 133.776 113.125C139.503 113.125 143.702 114.493 146.342 117.165C148.983 119.869 149.714 121.205 148.569 121.205L145.801 119.837C143.384 118.915 141.284 118.47 139.534 118.47C137.785 118.47 136.226 118.629 134.985 118.979C121.21 122.192 110.108 130.431 101.614 143.729C95.0923 154.068 91.8157 164.439 91.8157 174.873C91.8157 189.189 97.0329 198.478 107.467 202.741C110.903 204.204 114.657 204.968 118.729 204.968C122.801 204.968 126.937 204.459 131.2 203.409C138.866 201.691 146.692 196.919 154.582 189.03C162.503 181.172 168.961 171.915 174.019 161.257C179.077 150.6 181.591 140.611 181.591 131.322C181.591 119.169 177.964 110.103 170.742 104.154C164.666 99.3184 156.681 96.9325 146.819 96.9325C145.324 96.9325 143.734 96.9961 142.016 97.0916C129.291 97.8869 117.52 102.213 106.736 110.007C98.8144 115.511 92.1656 122.351 86.7893 130.495C81.3812 138.639 78.4226 146.719 77.85 154.768C77.7227 156.613 77.1819 157.026 76.2275 156.04C75.2732 155.054 74.7642 153.591 74.7642 151.65C74.7642 143.411 77.2137 135.298 82.081 127.313C86.9483 119.36 93.4699 112.457 101.614 106.572C107.34 102.468 113.925 99.1594 121.306 96.678C128.718 94.1966 135.781 92.9241 142.557 92.7969C156.681 92.7969 168.134 96.6462 176.978 104.313C185.822 112.012 190.212 122.669 190.212 136.316L190.18 136.348Z" fill="#AE3232"/>
<path d="M379.619 110.899C424.633 152.701 461.759 204.142 481.801 262.613C502.256 320.226 504.133 392.281 460.486 440.19C439.045 463.923 408.759 478.652 377.424 483.837C282.463 498.757 189.475 450.052 120.92 387.923C54.2723 323.757 -0.636043 234.332 7.76246 138.576C13.9023 70.9428 61.6846 20.7109 129.127 12.0897C222.401 0.987148 313.099 48.9286 379.619 110.931V110.899ZM378.983 111.599C312.526 50.6783 222.115 2.92771 129.7 15.7163C99.5097 20.2655 70.4013 33.8495 49.4368 56.3091C28.4724 78.7687 16.9563 108.736 14.5385 139.149C8.20783 232.169 62.0982 318.953 127.441 380.956C193.738 441.94 284.022 489.754 376.374 477.093C406.564 472.576 435.672 459.055 456.669 436.596C477.665 414.136 489.213 384.169 491.694 353.756C498.152 260.673 444.325 173.729 379.014 111.599H378.983Z" fill="#AE3232"/>
<path d="M154.927 288.158C148.565 288.158 145.192 284.723 145.192 278.265C145.192 274.67 146.624 270.503 149.455 265.89C154.768 257.905 162.435 248.52 171.597 238.722C181.3 228.16 189.698 219.602 196.57 213.208L202.105 194.407C196.665 198.702 189.953 201.183 181.681 201.947C181.522 201.947 181.3 201.978 181.109 201.978C179.804 201.978 178.914 201.151 178.914 199.942C178.786 199.624 178.723 198.224 180.95 197.493L181.713 197.302C186.58 196.952 191.384 194.502 196.601 189.762C201.85 185.054 205.573 179.869 208.054 173.92C208.722 172.138 210.981 171.279 214.957 171.279C217.916 171.279 219.697 171.725 220.524 172.679C220.938 173.156 221.129 173.761 221.065 174.429L210.535 200.61C225.105 188.744 235.317 182.795 241.743 182.477H244.193C253.514 182.477 260.099 185.659 263.758 191.894C266.843 197.047 268.37 202.996 268.37 210.091C268.37 220.302 265.221 234.968 259.049 253.737C259.049 253.833 258.986 253.928 258.954 253.992C259.049 253.865 259.558 253.069 259.558 253.069C260.608 251.383 262.867 247.788 266.08 242.285C268.02 239.104 269.897 236.05 271.774 233.123C272.442 231.914 273.174 230.673 274.065 229.592C284.499 213.24 295.411 198.797 306.418 186.74C311.126 181.841 315.866 179.391 320.543 179.391C323.438 179.391 325.633 180.409 327.319 182.509C328.814 184.577 329.578 186.836 329.578 189.126C329.578 191.289 329.132 194.248 328.178 198.447C327.096 202.615 323.979 211.109 319.175 223.006C318.157 225.52 317.139 228.096 316.439 230.482C315.548 232.677 315.008 234.332 314.721 235.604C313.321 239.835 312.399 243.08 311.794 245.911C310.681 250.683 310.108 255.487 310.108 259.813C310.108 270.025 314.053 270.025 315.357 270.025C318.221 270.025 322.006 268.18 326.651 264.554C328.305 263.217 331.264 260.291 335.495 255.869C337.213 254.151 338.931 252.433 340.648 250.556L341.285 249.888H347.965L346.502 251.479C344.784 253.356 343.225 255.073 342.048 256.441L340.362 258.287C339.312 259.464 338.485 260.354 337.881 260.959L336.831 261.977C329.609 269.707 323.724 274.193 318.889 275.624C316.757 276.451 314.435 276.865 311.922 276.865C303.746 276.865 299.61 271.043 299.61 259.559C299.61 254.883 300.151 250.111 301.169 245.434L301.678 243.048C302.092 241.617 302.442 240.312 302.792 239.072C303.205 237.608 303.555 236.24 303.937 235.032C304.159 233.886 304.509 232.805 304.796 231.819L305.114 230.737V230.578L305.305 229.846C306.164 227.269 307.213 224.152 308.391 220.716C309.663 217.217 310.904 214.035 311.858 211.713C314.053 206.464 315.898 201.787 317.362 197.811C317.998 196.188 318.348 194.725 318.348 193.484C318.348 192.148 317.966 191.703 317.712 191.512C317.107 191.067 316.407 190.844 315.517 190.844C314.88 190.844 313.258 191.607 310.808 193.707C302.187 201.151 292.23 213.113 281.223 229.305C280.873 229.846 280.586 230.292 280.427 230.578L278.328 233.664C276.833 235.859 275.401 237.958 274.001 239.962C266.589 251.351 261.308 260.354 257.904 267.512C257.3 268.975 256.25 270.98 254.277 270.98C253.355 270.98 251.955 270.471 250.524 268.117C249.028 265.603 248.838 264.554 248.838 264.013C248.838 263.536 248.901 263.154 248.965 262.804C248.965 262.677 249.028 262.549 249.028 262.454V262.263L249.092 262.104C251.987 255.01 254.118 247.12 255.582 238.054C256.854 228.892 257.459 222.211 257.459 217.058C257.459 198.384 253.546 188.935 245.847 188.935C238.148 188.935 224.501 198.288 204.173 216.739C203.155 219.73 201.023 224.852 197.524 232.773C192.848 243.144 188.744 251.542 184.926 258.477C174.364 278.36 164.534 288.031 154.832 288.031L154.927 288.158ZM191.543 228.478C186.358 233.664 180.663 239.708 174.555 246.548C166.952 255.232 161.958 261.054 158.967 265.063C155.054 270.503 153.146 274.447 153.146 277.056C153.146 280.396 154.832 280.396 155.468 280.396C162.212 280.396 170.738 270.566 180.759 251.16C185.467 242.285 189.094 234.682 191.575 228.478H191.543ZM358.368 230.101L359.799 228.51C361.231 226.919 362.599 225.488 363.776 224.247C365.112 222.847 366.289 221.607 366.925 220.811L367.053 220.652L367.212 220.557C367.88 220.207 368.548 220.016 369.121 220.016C369.916 220.016 370.393 220.334 370.648 220.62C370.902 220.875 371.157 221.352 371.061 222.084C370.934 223.134 369.82 224.47 367.466 227.11C366.766 227.906 365.971 228.796 365.176 229.751L364.889 230.101H358.336H358.368Z" fill="#AE3232"/>
<path d="M367.657 221.415C366.448 222.974 363.585 225.71 360.499 229.146H364.444C367.371 225.71 369.98 223.133 370.107 222.02C370.234 220.906 368.93 220.715 367.657 221.415ZM341.762 250.906C341.603 251.065 341.412 251.256 341.412 251.256C339.694 253.132 337.976 254.882 336.258 256.6C332.473 260.545 329.196 263.821 327.319 265.38C322.515 269.166 318.539 271.043 315.453 271.043C311.317 271.043 309.25 267.416 309.25 259.877C309.25 255.741 309.759 250.937 310.967 245.784C311.667 242.507 312.685 239.071 313.894 235.476C314.244 233.918 314.912 232.041 315.612 230.323C316.312 227.905 317.33 225.328 318.38 222.751C323.374 210.376 326.301 202.264 327.319 198.32C328.178 194.534 328.687 191.448 328.687 189.189C328.687 187.122 327.987 185.054 326.619 183.177C325.251 181.459 323.342 180.409 320.607 180.409C316.121 180.409 311.667 182.827 307.182 187.471C296.334 199.338 285.517 213.621 274.828 230.291C273.969 231.309 273.27 232.518 272.602 233.727C270.693 236.654 268.816 239.739 266.939 242.857C263.312 249.06 260.926 252.846 260.067 254.214C259.049 255.773 258.35 256.982 257.841 257.65C257.491 258.35 257.141 258.668 256.982 258.668C256.823 258.668 257.141 256.95 258.19 253.514C264.394 234.777 267.48 220.302 267.48 210.154C267.48 203.441 266.112 197.588 262.994 192.434C259.558 186.581 253.355 183.495 244.257 183.495H241.839C235.126 183.845 223.96 190.716 208.308 203.791L220.175 174.365C220.334 172.997 218.616 172.297 215.021 172.297C211.426 172.297 209.517 172.997 209.008 174.365C206.432 180.568 202.487 185.881 197.301 190.525C191.957 195.329 186.994 197.938 182 198.256L181.3 198.415C180.282 198.765 179.741 199.274 179.932 199.974C179.932 200.833 180.632 201.183 181.65 200.992C190.939 200.133 198.351 197.047 204.014 191.543L197.492 213.749C190.621 220.111 182.19 228.7 172.36 239.389C162.371 250.047 155.15 259.177 150.346 266.398C147.578 270.884 146.21 274.829 146.21 278.264C146.21 284.277 149.137 287.204 154.991 287.204C164.28 287.204 173.919 277.564 184.226 258.127C188.012 251.256 192.148 242.825 196.792 232.486C200.228 224.756 202.455 219.411 203.505 216.325C224.151 197.588 238.244 188.108 246.006 188.108C254.437 188.108 258.572 197.906 258.572 217.184C258.572 222.688 257.872 229.75 256.695 238.34C255.327 246.929 253.26 255.041 250.174 262.581C250.174 262.931 250.015 263.44 250.015 264.14C250.015 264.839 250.524 266.016 251.573 267.766C252.591 269.484 253.641 270.184 254.5 270.184C255.518 270.184 256.377 269.325 257.268 267.257C260.704 260.036 266.048 250.906 273.429 239.549C275.496 236.622 277.564 233.536 279.791 230.259C279.95 229.909 280.3 229.4 280.65 228.891C291.657 212.731 301.646 200.674 310.427 193.102C312.844 191.034 314.721 190.016 315.771 190.016C316.98 190.016 317.839 190.366 318.539 190.875C319.239 191.384 319.557 192.243 319.557 193.643C319.557 195.043 319.207 196.57 318.539 198.288C317.839 200.165 316.121 204.809 313.035 212.222C312.176 214.289 310.967 217.375 309.599 221.161C308.391 224.597 307.373 227.682 306.514 230.291C306.514 230.641 306.355 230.991 306.355 231.15C306.005 232.359 305.496 233.727 305.146 235.445C304.446 237.672 303.778 240.439 302.919 243.366C302.76 244.225 302.569 244.925 302.41 245.784C301.392 250.428 300.851 255.073 300.851 259.718C300.851 270.566 304.637 276.069 312.208 276.069C314.435 276.069 316.694 275.719 318.921 274.86C323.565 273.492 329.419 269.007 336.481 261.436C336.831 261.086 337.181 260.736 337.499 260.418C338.358 259.559 339.726 258 341.635 255.932C342.844 254.564 344.402 252.846 346.12 250.937H341.985L341.762 250.906ZM181.586 251.605C171.279 271.552 162.658 281.382 155.436 281.382C153.368 281.382 152.159 280.014 152.159 277.087C152.159 274.16 154.227 270.025 158.172 264.521C161.258 260.386 166.602 254.214 173.824 245.943C181.236 237.672 187.917 230.641 193.961 224.788C191.543 231.659 187.439 240.63 181.586 251.637V251.605Z" fill="#AE3232"/>
</svg>
